%TF.GenerationSoftware,KiCad,Pcbnew,(7.0.0)*%
%TF.CreationDate,2023-09-04T00:10:10+01:00*%
%TF.ProjectId,Razer36_V2,52617a65-7233-4365-9f56-322e6b696361,rev?*%
%TF.SameCoordinates,Original*%
%TF.FileFunction,Paste,Bot*%
%TF.FilePolarity,Positive*%
%FSLAX46Y46*%
G04 Gerber Fmt 4.6, Leading zero omitted, Abs format (unit mm)*
G04 Created by KiCad (PCBNEW (7.0.0)) date 2023-09-04 00:10:10*
%MOMM*%
%LPD*%
G01*
G04 APERTURE LIST*
%ADD10R,2.600000X2.600000*%
%ADD11R,1.100000X0.600000*%
%ADD12R,1.000000X0.600000*%
%ADD13R,0.600000X1.000000*%
G04 APERTURE END LIST*
D10*
%TO.C,Sw4*%
X132724999Y-82049999D03*
X144274999Y-84249999D03*
%TD*%
%TO.C,Sw17*%
X150724999Y-120049999D03*
X162274999Y-122249999D03*
%TD*%
%TO.C,Sw15*%
X114724999Y-122049999D03*
X126274999Y-124249999D03*
%TD*%
%TO.C,Sw16*%
X132724999Y-116049999D03*
X144274999Y-118249999D03*
%TD*%
%TO.C,Sw9*%
X114724999Y-105049999D03*
X126274999Y-107249999D03*
%TD*%
%TO.C,Sw1*%
X78724999Y-147049999D03*
X90274999Y-149249999D03*
%TD*%
%TO.C,Sw10*%
X132724999Y-99049999D03*
X144274999Y-101249999D03*
%TD*%
%TO.C,Sw5*%
X150724999Y-86049999D03*
X162274999Y-88249999D03*
%TD*%
%TO.C,Sw6*%
X168724999Y-99049999D03*
X180274999Y-101249999D03*
%TD*%
%TO.C,Sw3*%
X114724999Y-88049999D03*
X126274999Y-90249999D03*
%TD*%
%TO.C,Sw11*%
X150724999Y-103049999D03*
X162274999Y-105249999D03*
%TD*%
%TO.C,Sw2*%
X96724999Y-94049999D03*
X108274999Y-96249999D03*
%TD*%
%TO.C,Sw13*%
X114724999Y-143049999D03*
X126274999Y-145249999D03*
%TD*%
%TO.C,Sw7*%
X96724999Y-145049999D03*
X108274999Y-147249999D03*
%TD*%
%TO.C,Sw14*%
X96724999Y-128049999D03*
X108274999Y-130249999D03*
%TD*%
%TO.C,Sw12*%
X168724999Y-116049999D03*
X180274999Y-118249999D03*
%TD*%
%TO.C,Sw8*%
X96724999Y-111049999D03*
X108274999Y-113249999D03*
%TD*%
%TO.C,Sw18*%
X168724999Y-133049999D03*
X180274999Y-135249999D03*
%TD*%
D11*
%TO.C,PWR2*%
X96599999Y-78706999D03*
D12*
X89399999Y-78706999D03*
X96599999Y-80992999D03*
D11*
X89399999Y-80992999D03*
D13*
X90799999Y-81699999D03*
X93699999Y-81699999D03*
X95199999Y-81699999D03*
%TD*%
M02*
