%TF.GenerationSoftware,KiCad,Pcbnew,(7.0.0)*%
%TF.CreationDate,2023-09-04T00:10:10+01:00*%
%TF.ProjectId,Razer36_V2,52617a65-7233-4365-9f56-322e6b696361,rev?*%
%TF.SameCoordinates,Original*%
%TF.FileFunction,Copper,L2,Bot*%
%TF.FilePolarity,Positive*%
%FSLAX46Y46*%
G04 Gerber Fmt 4.6, Leading zero omitted, Abs format (unit mm)*
G04 Created by KiCad (PCBNEW (7.0.0)) date 2023-09-04 00:10:10*
%MOMM*%
%LPD*%
G01*
G04 APERTURE LIST*
%TA.AperFunction,SMDPad,CuDef*%
%ADD10R,2.600000X2.600000*%
%TD*%
%TA.AperFunction,ComponentPad*%
%ADD11C,2.032000*%
%TD*%
%TA.AperFunction,ComponentPad*%
%ADD12O,2.750000X1.800000*%
%TD*%
%TA.AperFunction,ComponentPad*%
%ADD13C,1.397000*%
%TD*%
%TA.AperFunction,ComponentPad*%
%ADD14R,1.700000X1.700000*%
%TD*%
%TA.AperFunction,ComponentPad*%
%ADD15O,1.700000X1.700000*%
%TD*%
%TA.AperFunction,SMDPad,CuDef*%
%ADD16R,1.100000X0.600000*%
%TD*%
%TA.AperFunction,SMDPad,CuDef*%
%ADD17R,1.000000X0.600000*%
%TD*%
%TA.AperFunction,SMDPad,CuDef*%
%ADD18R,0.600000X1.000000*%
%TD*%
%TA.AperFunction,ViaPad*%
%ADD19C,0.800000*%
%TD*%
%TA.AperFunction,Conductor*%
%ADD20C,0.250000*%
%TD*%
G04 APERTURE END LIST*
D10*
%TO.P,Sw4,1,NE*%
%TO.N,Net-(D4-A)*%
X132724999Y-82049999D03*
D11*
X136000000Y-93900000D03*
%TO.P,Sw4,2,SW*%
%TO.N,col3*%
X131000000Y-91800000D03*
X141000000Y-91800000D03*
D10*
X144274999Y-84249999D03*
%TD*%
%TO.P,Sw17,1,NE*%
%TO.N,Net-(D17-A)*%
X150724999Y-120049999D03*
D11*
X154000000Y-131900000D03*
%TO.P,Sw17,2,NW*%
%TO.N,col4*%
X149000000Y-129800000D03*
X159000000Y-129800000D03*
D10*
X162274999Y-122249999D03*
%TD*%
%TO.P,Sw15,1,NE*%
%TO.N,Net-(D15-A)*%
X114724999Y-122049999D03*
D11*
X118000000Y-133900000D03*
%TO.P,Sw15,2,NW*%
%TO.N,col2*%
X113000000Y-131800000D03*
X123000000Y-131800000D03*
D10*
X126274999Y-124249999D03*
%TD*%
D12*
%TO.P,U1,1,A2/0.02_H*%
%TO.N,row0*%
X70404999Y-81379999D03*
%TO.P,U1,2,A4/0.03_H*%
%TO.N,row1*%
X70404999Y-83919999D03*
%TO.P,U1,3,A10/0.28*%
%TO.N,row2*%
X70404999Y-86459999D03*
%TO.P,U1,4,A11/0.29*%
%TO.N,col0*%
X70404999Y-88999999D03*
%TO.P,U1,5,A8_SDA/0.04_H*%
%TO.N,Net-(J1-Pin_1)*%
X70404999Y-91539999D03*
%TO.P,U1,6,A9_SCL/0.05_H*%
%TO.N,Net-(J1-Pin_2)*%
X70404999Y-94079999D03*
%TO.P,U1,7,B8_TX/1.11*%
%TO.N,col1*%
X70404999Y-96619999D03*
%TO.P,U1,8,B9_RX/1.12*%
%TO.N,col2*%
X86594999Y-96619999D03*
%TO.P,U1,9,A7_SCK/1.13*%
%TO.N,col3*%
X86594999Y-94079999D03*
%TO.P,U1,10,A5_MISO/1.14*%
%TO.N,col4*%
X86594999Y-91539999D03*
%TO.P,U1,11,A6_MOSI/1.15*%
%TO.N,col5*%
X86594999Y-88999999D03*
%TO.P,U1,12,3V3*%
%TO.N,Net-(J1-Pin_4)*%
X86594999Y-86459999D03*
%TO.P,U1,13,GND*%
%TO.N,Net-(J1-Pin_3)*%
X86594999Y-83919999D03*
%TO.P,U1,14,5V*%
%TO.N,unconnected-(U1-5V-Pad14)*%
X86594999Y-81379999D03*
D13*
%TO.P,U1,15,A31_SWDIO*%
%TO.N,unconnected-(U1-A31_SWDIO-Pad15)*%
X77230000Y-80428000D03*
%TO.P,U1,16,A30_SWCLK*%
%TO.N,unconnected-(U1-A30_SWCLK-Pad16)*%
X79770000Y-80428000D03*
%TO.P,U1,17,RESET*%
%TO.N,unconnected-(U1-RESET-Pad17)*%
X77230000Y-82968000D03*
%TO.P,U1,18,GND*%
%TO.N,unconnected-(U1-GND-Pad18)*%
X79770000Y-82968000D03*
%TO.P,U1,19,BAT*%
%TO.N,unconnected-(U1-BAT-Pad19)*%
X74055000Y-88683000D03*
%TO.P,U1,20,GND*%
%TO.N,unconnected-(U1-GND-Pad20)*%
X74055000Y-86778000D03*
%TO.P,U1,21,NFC1/0.09_H*%
%TO.N,unconnected-(U1-NFC1{slash}0.09_H-Pad21)*%
X82310000Y-98208000D03*
%TO.P,U1,22,NFC2/0.10_H*%
%TO.N,unconnected-(U1-NFC2{slash}0.10_H-Pad22)*%
X84215000Y-98208000D03*
%TD*%
D14*
%TO.P,J1,1,Pin_1*%
%TO.N,Net-(J1-Pin_1)*%
X77999999Y-101999999D03*
D15*
%TO.P,J1,2,Pin_2*%
%TO.N,Net-(J1-Pin_2)*%
X80539999Y-101999999D03*
%TO.P,J1,3,Pin_3*%
%TO.N,Net-(J1-Pin_3)*%
X83079999Y-101999999D03*
%TO.P,J1,4,Pin_4*%
%TO.N,Net-(J1-Pin_4)*%
X85619999Y-101999999D03*
%TD*%
D10*
%TO.P,Sw16,1,NE*%
%TO.N,Net-(D16-A)*%
X132724999Y-116049999D03*
D11*
X136000000Y-127900000D03*
%TO.P,Sw16,2,NW*%
%TO.N,col3*%
X131000000Y-125800000D03*
X141000000Y-125800000D03*
D10*
X144274999Y-118249999D03*
%TD*%
%TO.P,Sw9,1,NE*%
%TO.N,Net-(D9-A)*%
X114724999Y-105049999D03*
D11*
X118000000Y-116900000D03*
%TO.P,Sw9,2,NW*%
%TO.N,col2*%
X113000000Y-114800000D03*
X123000000Y-114800000D03*
D10*
X126274999Y-107249999D03*
%TD*%
%TO.P,Sw1,1,NE*%
%TO.N,Net-(D1-A)*%
X78724999Y-147049999D03*
D11*
X82000000Y-158900000D03*
%TO.P,Sw1,2,SW*%
%TO.N,col0*%
X77000000Y-156800000D03*
X87000000Y-156800000D03*
D10*
X90274999Y-149249999D03*
%TD*%
%TO.P,Sw10,1,NE*%
%TO.N,Net-(D10-A)*%
X132724999Y-99049999D03*
D11*
X136000000Y-110900000D03*
%TO.P,Sw10,2,NW*%
%TO.N,col3*%
X131000000Y-108800000D03*
X141000000Y-108800000D03*
D10*
X144274999Y-101249999D03*
%TD*%
%TO.P,Sw5,1,NE*%
%TO.N,Net-(D5-A)*%
X150724999Y-86049999D03*
D11*
X154000000Y-97900000D03*
%TO.P,Sw5,2,SW*%
%TO.N,col4*%
X149000000Y-95800000D03*
X159000000Y-95800000D03*
D10*
X162274999Y-88249999D03*
%TD*%
D14*
%TO.P,J3,1,Pin_1*%
%TO.N,/Bat_Gnd*%
X90499999Y-84499999D03*
%TD*%
D10*
%TO.P,Sw6,1,NE*%
%TO.N,Net-(D6-A)*%
X168724999Y-99049999D03*
D11*
X172000000Y-110900000D03*
%TO.P,Sw6,2,SW*%
%TO.N,col5*%
X167000000Y-108800000D03*
X177000000Y-108800000D03*
D10*
X180274999Y-101249999D03*
%TD*%
%TO.P,Sw3,1,NE*%
%TO.N,Net-(D3-A)*%
X114724999Y-88049999D03*
D11*
X118000000Y-99900000D03*
%TO.P,Sw3,2,SW*%
%TO.N,col2*%
X113000000Y-97800000D03*
X123000000Y-97800000D03*
D10*
X126274999Y-90249999D03*
%TD*%
%TO.P,Sw11,1,NE*%
%TO.N,Net-(D11-A)*%
X150724999Y-103049999D03*
D11*
X154000000Y-114900000D03*
%TO.P,Sw11,2,NW*%
%TO.N,col4*%
X149000000Y-112800000D03*
X159000000Y-112800000D03*
D10*
X162274999Y-105249999D03*
%TD*%
%TO.P,Sw2,1,NE*%
%TO.N,Net-(D2-A)*%
X96724999Y-94049999D03*
D11*
X100000000Y-105900000D03*
%TO.P,Sw2,2,SW*%
%TO.N,col1*%
X95000000Y-103800000D03*
X105000000Y-103800000D03*
D10*
X108274999Y-96249999D03*
%TD*%
%TO.P,Sw13,1,NE*%
%TO.N,Net-(D13-A)*%
X114724999Y-143049999D03*
D11*
X118000000Y-154900000D03*
%TO.P,Sw13,2,NW*%
%TO.N,col0*%
X113000000Y-152800000D03*
X123000000Y-152800000D03*
D10*
X126274999Y-145249999D03*
%TD*%
%TO.P,Sw7,1,NE*%
%TO.N,Net-(D7-A)*%
X96724999Y-145049999D03*
D11*
X100000000Y-156900000D03*
%TO.P,Sw7,2,NW*%
%TO.N,col0*%
X95000000Y-154800000D03*
X105000000Y-154800000D03*
D10*
X108274999Y-147249999D03*
%TD*%
%TO.P,Sw14,1,NE*%
%TO.N,Net-(D14-A)*%
X96724999Y-128049999D03*
D11*
X100000000Y-139900000D03*
%TO.P,Sw14,2,NW*%
%TO.N,col1*%
X95000000Y-137800000D03*
X105000000Y-137800000D03*
D10*
X108274999Y-130249999D03*
%TD*%
%TO.P,Sw12,1,NE*%
%TO.N,Net-(D12-A)*%
X168724999Y-116049999D03*
D11*
X172000000Y-127900000D03*
%TO.P,Sw12,2,SW*%
%TO.N,col5*%
X167000000Y-125800000D03*
X177000000Y-125800000D03*
D10*
X180274999Y-118249999D03*
%TD*%
%TO.P,Sw8,1,NE*%
%TO.N,Net-(D8-A)*%
X96724999Y-111049999D03*
D11*
X100000000Y-122900000D03*
%TO.P,Sw8,2,SW*%
%TO.N,col1*%
X95000000Y-120800000D03*
X105000000Y-120800000D03*
D10*
X108274999Y-113249999D03*
%TD*%
%TO.P,Sw18,1,NE*%
%TO.N,Net-(D18-A)*%
X168724999Y-133049999D03*
D11*
X172000000Y-144900000D03*
%TO.P,Sw18,2,SW*%
%TO.N,col5*%
X167000000Y-142800000D03*
X177000000Y-142800000D03*
D10*
X180274999Y-135249999D03*
%TD*%
D16*
%TO.P,PWR2,*%
%TO.N,*%
X96599999Y-78706999D03*
D17*
X89399999Y-78706999D03*
X96599999Y-80992999D03*
D16*
X89399999Y-80992999D03*
D18*
%TO.P,PWR2,1,A*%
%TO.N,Net-(J1-Pin_3)*%
X90799999Y-81699999D03*
%TO.P,PWR2,2,B*%
%TO.N,/Bat_Gnd*%
X93699999Y-81699999D03*
%TO.P,PWR2,3,C*%
%TO.N,unconnected-(PWR2-C-Pad3)*%
X95199999Y-81699999D03*
%TD*%
D19*
%TO.N,Net-(D1-A)*%
X78500000Y-145000000D03*
%TO.N,Net-(D2-A)*%
X95000000Y-92000000D03*
%TO.N,Net-(D3-A)*%
X113000000Y-86000000D03*
%TO.N,Net-(D4-A)*%
X128000000Y-82000000D03*
%TO.N,Net-(D5-A)*%
X149175479Y-84175479D03*
%TO.N,Net-(D6-A)*%
X167500000Y-97000000D03*
%TO.N,Net-(D10-K)*%
X89000000Y-139350000D03*
X87000000Y-128000000D03*
%TO.N,Net-(D7-A)*%
X95750000Y-143000000D03*
%TO.N,Net-(D8-A)*%
X95500000Y-109000000D03*
%TO.N,Net-(D9-A)*%
X113000000Y-103000000D03*
%TO.N,Net-(D10-A)*%
X131500000Y-97000000D03*
%TO.N,Net-(D11-A)*%
X149500000Y-101000000D03*
%TO.N,Net-(D12-A)*%
X167000000Y-114000000D03*
%TO.N,Net-(D13-K)*%
X85000000Y-129000000D03*
X90500000Y-123000000D03*
%TO.N,Net-(D13-A)*%
X113500000Y-141000000D03*
%TO.N,Net-(D14-A)*%
X96000000Y-126000000D03*
%TO.N,Net-(D15-A)*%
X114000000Y-120000000D03*
%TO.N,Net-(D16-A)*%
X131500000Y-114000000D03*
%TO.N,Net-(D17-A)*%
X149500000Y-118000000D03*
%TO.N,Net-(D18-A)*%
X167500000Y-131000000D03*
%TO.N,Net-(J1-Pin_1)*%
X77250000Y-92750000D03*
%TO.N,Net-(J1-Pin_2)*%
X79500000Y-95000000D03*
%TD*%
D20*
%TO.N,col0*%
X108275000Y-151525000D02*
X108275000Y-147250000D01*
X123000000Y-152800000D02*
X126275000Y-149525000D01*
X95000000Y-154800000D02*
X93200000Y-153000000D01*
X113000000Y-152800000D02*
X109550000Y-152800000D01*
X126275000Y-149525000D02*
X126275000Y-145250000D01*
X90800000Y-153000000D02*
X90275000Y-153525000D01*
X93200000Y-153000000D02*
X90800000Y-153000000D01*
X105000000Y-154800000D02*
X108275000Y-151525000D01*
X109550000Y-152800000D02*
X108275000Y-151525000D01*
X87000000Y-156800000D02*
X90275000Y-153525000D01*
X90275000Y-153525000D02*
X90275000Y-149250000D01*
%TO.N,col1*%
X95300305Y-91275000D02*
X94699695Y-91275000D01*
X105000000Y-137800000D02*
X108275000Y-134525000D01*
X94699695Y-91275000D02*
X92450000Y-93524694D01*
X105000000Y-103800000D02*
X108275000Y-100525000D01*
X86750000Y-100250000D02*
X74510000Y-100250000D01*
X92450000Y-94550000D02*
X86750000Y-100250000D01*
X108275000Y-107075000D02*
X105000000Y-103800000D01*
X108275000Y-96250000D02*
X108275000Y-94275000D01*
X108275000Y-124075000D02*
X105000000Y-120800000D01*
X108275000Y-130250000D02*
X108275000Y-124075000D01*
X105500000Y-91500000D02*
X95525305Y-91500000D01*
X92450000Y-93524694D02*
X92450000Y-94550000D01*
X108275000Y-94275000D02*
X105500000Y-91500000D01*
X108275000Y-134525000D02*
X108275000Y-130250000D01*
X74510000Y-100250000D02*
X70880000Y-96620000D01*
X95525305Y-91500000D02*
X95300305Y-91275000D01*
X105000000Y-120800000D02*
X108275000Y-117525000D01*
X108275000Y-117525000D02*
X108275000Y-113250000D01*
X108275000Y-113250000D02*
X108275000Y-107075000D01*
X108275000Y-100525000D02*
X108275000Y-96250000D01*
%TO.N,col2*%
X94588299Y-90750000D02*
X88718299Y-96620000D01*
X126275000Y-94525000D02*
X126275000Y-90250000D01*
X123000000Y-97800000D02*
X126275000Y-94525000D01*
X123500000Y-85000000D02*
X111000000Y-85000000D01*
X126275000Y-107250000D02*
X126275000Y-101075000D01*
X126275000Y-124250000D02*
X126275000Y-118075000D01*
X126275000Y-101075000D02*
X123000000Y-97800000D01*
X126275000Y-87775000D02*
X123500000Y-85000000D01*
X105250000Y-90750000D02*
X94588299Y-90750000D01*
X126275000Y-111525000D02*
X126275000Y-107250000D01*
X123000000Y-131800000D02*
X126275000Y-128525000D01*
X111000000Y-85000000D02*
X105250000Y-90750000D01*
X88718299Y-96620000D02*
X86120000Y-96620000D01*
X126275000Y-90250000D02*
X126275000Y-87775000D01*
X126275000Y-118075000D02*
X123000000Y-114800000D01*
X123000000Y-114800000D02*
X126275000Y-111525000D01*
X126275000Y-128525000D02*
X126275000Y-124250000D01*
%TO.N,col3*%
X105263322Y-90100960D02*
X110813803Y-84550480D01*
X143000000Y-122000000D02*
X144275000Y-120725000D01*
X144275000Y-105525000D02*
X144275000Y-101250000D01*
X144275000Y-101250000D02*
X144275000Y-95075000D01*
X144275000Y-120725000D02*
X144275000Y-118250000D01*
X140025000Y-80000000D02*
X144275000Y-84250000D01*
X94149040Y-90100960D02*
X105263322Y-90100960D01*
X144275000Y-118250000D02*
X144275000Y-112075000D01*
X123949520Y-84550480D02*
X128500000Y-80000000D01*
X90170000Y-94080000D02*
X94149040Y-90100960D01*
X141000000Y-125800000D02*
X143000000Y-123800000D01*
X144275000Y-88525000D02*
X144275000Y-84250000D01*
X144275000Y-112075000D02*
X141000000Y-108800000D01*
X144275000Y-95075000D02*
X141000000Y-91800000D01*
X141000000Y-91800000D02*
X144275000Y-88525000D01*
X128500000Y-80000000D02*
X140025000Y-80000000D01*
X110813803Y-84550480D02*
X123949520Y-84550480D01*
X143000000Y-123800000D02*
X143000000Y-122000000D01*
X141000000Y-108800000D02*
X144275000Y-105525000D01*
X86120000Y-94080000D02*
X90170000Y-94080000D01*
%TO.N,col4*%
X123763322Y-84100960D02*
X128313802Y-79550480D01*
X162275000Y-92525000D02*
X162275000Y-88250000D01*
X93441409Y-89651440D02*
X105077124Y-89651440D01*
X159000000Y-129800000D02*
X162275000Y-126525000D01*
X140211197Y-79550480D02*
X143160718Y-82500000D01*
X162275000Y-99075000D02*
X159000000Y-95800000D01*
X105077124Y-89651440D02*
X110627606Y-84100960D01*
X88250000Y-90250000D02*
X92842849Y-90250000D01*
X162275000Y-105250000D02*
X162275000Y-99075000D01*
X92842849Y-90250000D02*
X93441409Y-89651440D01*
X162275000Y-116075000D02*
X159000000Y-112800000D01*
X156525000Y-82500000D02*
X162275000Y-88250000D01*
X159000000Y-112800000D02*
X162275000Y-109525000D01*
X162275000Y-126525000D02*
X162275000Y-122250000D01*
X86960000Y-91540000D02*
X88250000Y-90250000D01*
X86120000Y-91540000D02*
X86960000Y-91540000D01*
X162275000Y-122250000D02*
X162275000Y-116075000D01*
X162275000Y-109525000D02*
X162275000Y-105250000D01*
X128313802Y-79550480D02*
X140211197Y-79550480D01*
X159000000Y-95800000D02*
X162275000Y-92525000D01*
X143160718Y-82500000D02*
X156525000Y-82500000D01*
X110627606Y-84100960D02*
X123763322Y-84100960D01*
%TO.N,col5*%
X156711396Y-82050000D02*
X143346434Y-82050000D01*
X180275000Y-122525000D02*
X180275000Y-118250000D01*
X110441406Y-83651440D02*
X105092846Y-89000000D01*
X143346434Y-82050000D02*
X140397394Y-79100960D01*
X180275000Y-118250000D02*
X180275000Y-112075000D01*
X180275000Y-129075000D02*
X177000000Y-125800000D01*
X177000000Y-125800000D02*
X180275000Y-122525000D01*
X180275000Y-139525000D02*
X180275000Y-135250000D01*
X105092846Y-89000000D02*
X86120000Y-89000000D01*
X164000000Y-93500000D02*
X164000000Y-86500000D01*
X123577124Y-83651440D02*
X110441406Y-83651440D01*
X180275000Y-135250000D02*
X180275000Y-129075000D01*
X177000000Y-108800000D02*
X180275000Y-105525000D01*
X180275000Y-101250000D02*
X180250000Y-101250000D01*
X166500000Y-96000000D02*
X164000000Y-93500000D01*
X180250000Y-101250000D02*
X175000000Y-96000000D01*
X164000000Y-86500000D02*
X163750000Y-86250000D01*
X177000000Y-142800000D02*
X180275000Y-139525000D01*
X140397394Y-79100960D02*
X128127604Y-79100960D01*
X175000000Y-96000000D02*
X166500000Y-96000000D01*
X180275000Y-112075000D02*
X177000000Y-108800000D01*
X160911396Y-86250000D02*
X156711396Y-82050000D01*
X163750000Y-86250000D02*
X160911396Y-86250000D01*
X180275000Y-105525000D02*
X180275000Y-101250000D01*
X128127604Y-79100960D02*
X123577124Y-83651440D01*
%TO.N,Net-(D1-A)*%
X78500000Y-145000000D02*
X78500000Y-146825000D01*
X78500000Y-146825000D02*
X78725000Y-147050000D01*
X78725000Y-147050000D02*
X78874521Y-147199521D01*
X78874521Y-147199521D02*
X78874521Y-155774521D01*
X78874521Y-155774521D02*
X82000000Y-158900000D01*
%TO.N,Net-(D2-A)*%
X100000000Y-103000000D02*
X97000000Y-100000000D01*
X96725000Y-93725000D02*
X95000000Y-92000000D01*
X97000000Y-94325000D02*
X96725000Y-94050000D01*
X100000000Y-105900000D02*
X100000000Y-103000000D01*
X96725000Y-94050000D02*
X96725000Y-93725000D01*
X97000000Y-100000000D02*
X97000000Y-94325000D01*
%TO.N,/Bat_Gnd*%
X91750000Y-84500000D02*
X93700000Y-82550000D01*
X90500000Y-84500000D02*
X91750000Y-84500000D01*
X93700000Y-82550000D02*
X93700000Y-81700000D01*
%TO.N,Net-(D3-A)*%
X118000000Y-97000000D02*
X115000000Y-94000000D01*
X115000000Y-88325000D02*
X114725000Y-88050000D01*
X114725000Y-88050000D02*
X114725000Y-87725000D01*
X114725000Y-87725000D02*
X113000000Y-86000000D01*
X118000000Y-99900000D02*
X118000000Y-97000000D01*
X115000000Y-94000000D02*
X115000000Y-88325000D01*
%TO.N,Net-(D4-A)*%
X128000000Y-82000000D02*
X128050000Y-82050000D01*
X133000000Y-89000000D02*
X133000000Y-82325000D01*
X128050000Y-82050000D02*
X132725000Y-82050000D01*
X133000000Y-82325000D02*
X132725000Y-82050000D01*
X136000000Y-93900000D02*
X136000000Y-92000000D01*
X136000000Y-92000000D02*
X133000000Y-89000000D01*
%TO.N,Net-(D5-A)*%
X151000000Y-94900000D02*
X151000000Y-86325000D01*
X151000000Y-86325000D02*
X150725000Y-86050000D01*
X154000000Y-97900000D02*
X151000000Y-94900000D01*
X150725000Y-85725000D02*
X149175479Y-84175479D01*
X150725000Y-86050000D02*
X150725000Y-85725000D01*
%TO.N,Net-(D6-A)*%
X168874521Y-107374521D02*
X168874521Y-99199521D01*
X168725000Y-99050000D02*
X168725000Y-98225000D01*
X172000000Y-110500000D02*
X168874521Y-107374521D01*
X168725000Y-98225000D02*
X167500000Y-97000000D01*
X172000000Y-110900000D02*
X172000000Y-110500000D01*
X168874521Y-99199521D02*
X168725000Y-99050000D01*
%TO.N,Net-(D10-K)*%
X87000000Y-128000000D02*
X89000000Y-130000000D01*
X89000000Y-130000000D02*
X89000000Y-139350000D01*
%TO.N,Net-(D7-A)*%
X95750000Y-143000000D02*
X95750000Y-144075000D01*
X96874521Y-153774521D02*
X96875000Y-153774042D01*
X95750000Y-144075000D02*
X96725000Y-145050000D01*
X96875000Y-145200000D02*
X96725000Y-145050000D01*
X100000000Y-156900000D02*
X96874521Y-153774521D01*
X96875000Y-153774042D02*
X96875000Y-145200000D01*
%TO.N,Net-(D8-A)*%
X97000000Y-111325000D02*
X96725000Y-111050000D01*
X100000000Y-121000000D02*
X97000000Y-118000000D01*
X96725000Y-110225000D02*
X95500000Y-109000000D01*
X97000000Y-118000000D02*
X97000000Y-111325000D01*
X100000000Y-122900000D02*
X100000000Y-121000000D01*
X96725000Y-111050000D02*
X96725000Y-110225000D01*
%TO.N,Net-(D9-A)*%
X114725000Y-105050000D02*
X114725000Y-104725000D01*
X115000000Y-105325000D02*
X114725000Y-105050000D01*
X118000000Y-116900000D02*
X118000000Y-114000000D01*
X114725000Y-104725000D02*
X113000000Y-103000000D01*
X115000000Y-111000000D02*
X115000000Y-105325000D01*
X118000000Y-114000000D02*
X115000000Y-111000000D01*
%TO.N,Net-(D10-A)*%
X133000000Y-105000000D02*
X133000000Y-99325000D01*
X136000000Y-108000000D02*
X133000000Y-105000000D01*
X132725000Y-99050000D02*
X132725000Y-98225000D01*
X133000000Y-99325000D02*
X132725000Y-99050000D01*
X132725000Y-98225000D02*
X131500000Y-97000000D01*
X136000000Y-110900000D02*
X136000000Y-108000000D01*
%TO.N,Net-(D11-A)*%
X150725000Y-103050000D02*
X150725000Y-102225000D01*
X150725000Y-102225000D02*
X149500000Y-101000000D01*
X151000000Y-103325000D02*
X150725000Y-103050000D01*
X154000000Y-114900000D02*
X154000000Y-113000000D01*
X154000000Y-113000000D02*
X151000000Y-110000000D01*
X151000000Y-110000000D02*
X151000000Y-103325000D01*
%TO.N,Net-(D12-A)*%
X172000000Y-127900000D02*
X169910979Y-125810979D01*
X168725000Y-115725000D02*
X167000000Y-114000000D01*
X169910979Y-125810979D02*
X169910979Y-117235979D01*
X168725000Y-116050000D02*
X168725000Y-115725000D01*
X169910979Y-117235979D02*
X168725000Y-116050000D01*
%TO.N,Net-(D13-K)*%
X90500000Y-123000000D02*
X90500000Y-123250000D01*
X85000000Y-128750000D02*
X85000000Y-129000000D01*
X90500000Y-123250000D02*
X85000000Y-128750000D01*
%TO.N,Net-(D13-A)*%
X114725000Y-143050000D02*
X114874521Y-143199521D01*
X114874521Y-151774521D02*
X118000000Y-154900000D01*
X114725000Y-142225000D02*
X113500000Y-141000000D01*
X114874521Y-143199521D02*
X114874521Y-151774521D01*
X114725000Y-143050000D02*
X114725000Y-142225000D01*
%TO.N,Net-(D14-A)*%
X96725000Y-128050000D02*
X96725000Y-126725000D01*
X96725000Y-126725000D02*
X96000000Y-126000000D01*
X97000000Y-135000000D02*
X97000000Y-128325000D01*
X100000000Y-138000000D02*
X97000000Y-135000000D01*
X100000000Y-139900000D02*
X100000000Y-138000000D01*
X97000000Y-128325000D02*
X96725000Y-128050000D01*
%TO.N,Net-(D15-A)*%
X114725000Y-120725000D02*
X114000000Y-120000000D01*
X114725000Y-122050000D02*
X114725000Y-120725000D01*
X118000000Y-133900000D02*
X118000000Y-132000000D01*
X115000000Y-122325000D02*
X114725000Y-122050000D01*
X118000000Y-132000000D02*
X115000000Y-129000000D01*
X115000000Y-129000000D02*
X115000000Y-122325000D01*
%TO.N,Net-(D16-A)*%
X133000000Y-122000000D02*
X133000000Y-116325000D01*
X136000000Y-125000000D02*
X133000000Y-122000000D01*
X131500000Y-114000000D02*
X132725000Y-115225000D01*
X132725000Y-115225000D02*
X132725000Y-116050000D01*
X136000000Y-127900000D02*
X136000000Y-125000000D01*
X133000000Y-116325000D02*
X132725000Y-116050000D01*
%TO.N,Net-(D17-A)*%
X151910979Y-121235979D02*
X150725000Y-120050000D01*
X154000000Y-131900000D02*
X151910979Y-129810979D01*
X150725000Y-119225000D02*
X149500000Y-118000000D01*
X151910979Y-129810979D02*
X151910979Y-121235979D01*
X150725000Y-120050000D02*
X150725000Y-119225000D01*
%TO.N,Net-(D18-A)*%
X172000000Y-143000000D02*
X169000000Y-140000000D01*
X169000000Y-133325000D02*
X168725000Y-133050000D01*
X168725000Y-132225000D02*
X167500000Y-131000000D01*
X172000000Y-144900000D02*
X172000000Y-143000000D01*
X169000000Y-140000000D02*
X169000000Y-133325000D01*
X168725000Y-133050000D02*
X168725000Y-132225000D01*
%TO.N,Net-(J1-Pin_1)*%
X77250000Y-92750000D02*
X76040000Y-91540000D01*
X76040000Y-91540000D02*
X70880000Y-91540000D01*
%TO.N,Net-(J1-Pin_2)*%
X79500000Y-95000000D02*
X78580000Y-94080000D01*
X78580000Y-94080000D02*
X70880000Y-94080000D01*
%TO.N,Net-(J1-Pin_3)*%
X88580000Y-83920000D02*
X90800000Y-81700000D01*
X86120000Y-83920000D02*
X88580000Y-83920000D01*
%TD*%
M02*
