M48
; DRILL file {KiCad (7.0.0)} date Mon Sep  4 00:10:09 2023
; FORMAT={-:-/ absolute / inch / decimal}
; #@! TF.CreationDate,2023-09-04T00:10:09+01:00
; #@! TF.GenerationSoftware,Kicad,Pcbnew,(7.0.0)
; #@! TF.FileFunction,NonPlated,1,2,NPTH
FMAT,2
INCH
; #@! TA.AperFunction,NonPlated,NPTH,ComponentDrill
T1C0.0276
; #@! TA.AperFunction,NonPlated,NPTH,ComponentDrill
T2C0.0670
; #@! TA.AperFunction,NonPlated,NPTH,ComponentDrill
T3C0.1181
; #@! TA.AperFunction,NonPlated,NPTH,ComponentDrill
T4C0.1260
; #@! TA.AperFunction,NonPlated,NPTH,ComponentDrill
T5C0.1350
%
G90
G05
T1
X3.6043Y-3.1437
X3.6043Y-3.1437
X3.7185Y-3.1437
X3.7185Y-3.1437
T2
X3.0118Y-6.0236
X3.4449Y-6.0236
X3.7205Y-3.937
X3.7205Y-4.6063
X3.7205Y-5.2756
X3.7205Y-5.9449
X4.1535Y-3.937
X4.1535Y-4.6063
X4.1535Y-5.2756
X4.1535Y-5.9449
X4.4291Y-3.7008
X4.4291Y-4.3701
X4.4291Y-5.0394
X4.4291Y-5.8661
X4.8622Y-3.7008
X4.8622Y-4.3701
X4.8622Y-5.0394
X4.8622Y-5.8661
X5.1378Y-3.4646
X5.1378Y-4.1339
X5.1378Y-4.8031
X5.5709Y-3.4646
X5.5709Y-4.1339
X5.5709Y-4.8031
X5.8465Y-3.622
X5.8465Y-4.2913
X5.8465Y-4.9606
X6.2795Y-3.622
X6.2795Y-4.2913
X6.2795Y-4.9606
X6.5551Y-4.1339
X6.5551Y-4.8031
X6.5551Y-5.4724
X6.9882Y-4.1339
X6.9882Y-4.8031
X6.9882Y-5.4724
T3
X3.0315Y-5.876
X3.2283Y-5.7894
X3.4252Y-5.876
X3.7402Y-3.7894
X3.7402Y-4.4587
X3.7402Y-5.128
X3.7402Y-5.7972
X3.937Y-3.7028
X3.937Y-4.372
X3.937Y-5.0413
X3.937Y-5.7106
X4.1339Y-3.7894
X4.1339Y-4.4587
X4.1339Y-5.128
X4.1339Y-5.7972
X4.4488Y-3.5531
X4.4488Y-4.2224
X4.4488Y-4.8917
X4.4488Y-5.7185
X4.6457Y-3.4665
X4.6457Y-4.1358
X4.6457Y-4.8051
X4.6457Y-5.6319
X4.8425Y-3.5531
X4.8425Y-4.2224
X4.8425Y-4.8917
X4.8425Y-5.7185
X5.1575Y-3.3169
X5.1575Y-3.9862
X5.1575Y-4.6555
X5.3543Y-3.2303
X5.3543Y-3.8996
X5.3543Y-4.5689
X5.5512Y-3.3169
X5.5512Y-3.9862
X5.5512Y-4.6555
X5.8661Y-3.4744
X5.8661Y-4.1437
X5.8661Y-4.813
X6.063Y-3.3878
X6.063Y-4.0571
X6.063Y-4.7264
X6.2598Y-3.4744
X6.2598Y-4.1437
X6.2598Y-4.813
X6.5748Y-3.9862
X6.5748Y-4.6555
X6.5748Y-5.3248
X6.7717Y-3.8996
X6.7717Y-4.5689
X6.7717Y-5.2382
X6.9685Y-3.9862
X6.9685Y-4.6555
X6.9685Y-5.3248
T4
X2.7559Y-4.0551
X3.1496Y-5.3543
X4.0157Y-3.2283
X4.3307Y-6.2598
X6.2992Y-5.7087
X6.4173Y-3.2283
T5
X3.2283Y-6.0236
X3.937Y-3.937
X3.937Y-4.6063
X3.937Y-5.2756
X3.937Y-5.9449
X4.6457Y-3.7008
X4.6457Y-4.3701
X4.6457Y-5.0394
X4.6457Y-5.8661
X5.3543Y-3.4646
X5.3543Y-4.1339
X5.3543Y-4.8031
X6.063Y-3.622
X6.063Y-4.2913
X6.063Y-4.9606
X6.7717Y-4.1339
X6.7717Y-4.8031
X6.7717Y-5.4724
T0
M30
