%TF.GenerationSoftware,KiCad,Pcbnew,(7.0.0)*%
%TF.CreationDate,2023-09-04T00:10:11+01:00*%
%TF.ProjectId,Razer36_V2,52617a65-7233-4365-9f56-322e6b696361,rev?*%
%TF.SameCoordinates,Original*%
%TF.FileFunction,Soldermask,Bot*%
%TF.FilePolarity,Negative*%
%FSLAX46Y46*%
G04 Gerber Fmt 4.6, Leading zero omitted, Abs format (unit mm)*
G04 Created by KiCad (PCBNEW (7.0.0)) date 2023-09-04 00:10:11*
%MOMM*%
%LPD*%
G01*
G04 APERTURE LIST*
%ADD10C,1.701800*%
%ADD11C,3.000000*%
%ADD12C,3.429000*%
%ADD13R,2.600000X2.600000*%
%ADD14C,2.032000*%
%ADD15C,3.200000*%
%ADD16O,2.750000X1.800000*%
%ADD17C,1.397000*%
%ADD18C,0.700000*%
%ADD19R,1.700000X1.700000*%
%ADD20O,1.700000X1.700000*%
%ADD21R,1.100000X0.600000*%
%ADD22R,1.000000X0.600000*%
%ADD23R,0.600000X1.000000*%
G04 APERTURE END LIST*
D10*
%TO.C,Sw4*%
X130500000Y-88000000D03*
D11*
X131000000Y-84250000D03*
X136000000Y-82050000D03*
D12*
X136000000Y-88000000D03*
D11*
X141000000Y-84250000D03*
D10*
X141500000Y-88000000D03*
D13*
X132724999Y-82049999D03*
D14*
X136000000Y-93900000D03*
X131000000Y-91800000D03*
X141000000Y-91800000D03*
D13*
X144274999Y-84249999D03*
%TD*%
D15*
%TO.C,REF\u002A\u002A*%
X80000000Y-136000000D03*
%TD*%
D10*
%TO.C,Sw17*%
X148500000Y-126000000D03*
D11*
X149000000Y-122250000D03*
X154000000Y-120050000D03*
D12*
X154000000Y-126000000D03*
D11*
X159000000Y-122250000D03*
D10*
X159500000Y-126000000D03*
D13*
X150724999Y-120049999D03*
D14*
X154000000Y-131900000D03*
X149000000Y-129800000D03*
X159000000Y-129800000D03*
D13*
X162274999Y-122249999D03*
%TD*%
D10*
%TO.C,Sw15*%
X112500000Y-128000000D03*
D11*
X113000000Y-124250000D03*
X118000000Y-122050000D03*
D12*
X118000000Y-128000000D03*
D11*
X123000000Y-124250000D03*
D10*
X123500000Y-128000000D03*
D13*
X114724999Y-122049999D03*
D14*
X118000000Y-133900000D03*
X113000000Y-131800000D03*
X123000000Y-131800000D03*
D13*
X126274999Y-124249999D03*
%TD*%
D16*
%TO.C,U1*%
X70404999Y-81379999D03*
X70404999Y-83919999D03*
X70404999Y-86459999D03*
X70404999Y-88999999D03*
X70404999Y-91539999D03*
X70404999Y-94079999D03*
X70404999Y-96619999D03*
X86594999Y-96619999D03*
X86594999Y-94079999D03*
X86594999Y-91539999D03*
X86594999Y-88999999D03*
X86594999Y-86459999D03*
X86594999Y-83919999D03*
X86594999Y-81379999D03*
D17*
X77230000Y-80428000D03*
X79770000Y-80428000D03*
X77230000Y-82968000D03*
X79770000Y-82968000D03*
X74055000Y-88683000D03*
X74055000Y-86778000D03*
X82310000Y-98208000D03*
X84215000Y-98208000D03*
%TD*%
D15*
%TO.C,REF\u002A\u002A*%
X70000000Y-103000000D03*
%TD*%
D18*
%TO.C,PWR1*%
X94450000Y-79850000D03*
X91550000Y-79850000D03*
%TD*%
D15*
%TO.C,REF\u002A\u002A*%
X163000000Y-82000000D03*
%TD*%
D19*
%TO.C,J1*%
X77999999Y-101999999D03*
D20*
X80539999Y-101999999D03*
X83079999Y-101999999D03*
X85619999Y-101999999D03*
%TD*%
D10*
%TO.C,Sw16*%
X130500000Y-122000000D03*
D11*
X131000000Y-118250000D03*
X136000000Y-116050000D03*
D12*
X136000000Y-122000000D03*
D11*
X141000000Y-118250000D03*
D10*
X141500000Y-122000000D03*
D13*
X132724999Y-116049999D03*
D14*
X136000000Y-127900000D03*
X131000000Y-125800000D03*
X141000000Y-125800000D03*
D13*
X144274999Y-118249999D03*
%TD*%
D15*
%TO.C,REF\u002A\u002A*%
X160000000Y-145000000D03*
%TD*%
D10*
%TO.C,Sw9*%
X112500000Y-111000000D03*
D11*
X113000000Y-107250000D03*
X118000000Y-105050000D03*
D12*
X118000000Y-111000000D03*
D11*
X123000000Y-107250000D03*
D10*
X123500000Y-111000000D03*
D13*
X114724999Y-105049999D03*
D14*
X118000000Y-116900000D03*
X113000000Y-114800000D03*
X123000000Y-114800000D03*
D13*
X126274999Y-107249999D03*
%TD*%
D10*
%TO.C,Sw1*%
X76500000Y-153000000D03*
D11*
X77000000Y-149250000D03*
X82000000Y-147050000D03*
D12*
X82000000Y-153000000D03*
D11*
X87000000Y-149250000D03*
D10*
X87500000Y-153000000D03*
D13*
X78724999Y-147049999D03*
D14*
X82000000Y-158900000D03*
X77000000Y-156800000D03*
X87000000Y-156800000D03*
D13*
X90274999Y-149249999D03*
%TD*%
D10*
%TO.C,Sw10*%
X130500000Y-105000000D03*
D11*
X131000000Y-101250000D03*
X136000000Y-99050000D03*
D12*
X136000000Y-105000000D03*
D11*
X141000000Y-101250000D03*
D10*
X141500000Y-105000000D03*
D13*
X132724999Y-99049999D03*
D14*
X136000000Y-110900000D03*
X131000000Y-108800000D03*
X141000000Y-108800000D03*
D13*
X144274999Y-101249999D03*
%TD*%
D10*
%TO.C,Sw5*%
X148500000Y-92000000D03*
D11*
X149000000Y-88250000D03*
X154000000Y-86050000D03*
D12*
X154000000Y-92000000D03*
D11*
X159000000Y-88250000D03*
D10*
X159500000Y-92000000D03*
D13*
X150724999Y-86049999D03*
D14*
X154000000Y-97900000D03*
X149000000Y-95800000D03*
X159000000Y-95800000D03*
D13*
X162274999Y-88249999D03*
%TD*%
D19*
%TO.C,J3*%
X90499999Y-84499999D03*
%TD*%
D10*
%TO.C,Sw6*%
X166500000Y-105000000D03*
D11*
X167000000Y-101250000D03*
X172000000Y-99050000D03*
D12*
X172000000Y-105000000D03*
D11*
X177000000Y-101250000D03*
D10*
X177500000Y-105000000D03*
D13*
X168724999Y-99049999D03*
D14*
X172000000Y-110900000D03*
X167000000Y-108800000D03*
X177000000Y-108800000D03*
D13*
X180274999Y-101249999D03*
%TD*%
D10*
%TO.C,Sw3*%
X112500000Y-94000000D03*
D11*
X113000000Y-90250000D03*
X118000000Y-88050000D03*
D12*
X118000000Y-94000000D03*
D11*
X123000000Y-90250000D03*
D10*
X123500000Y-94000000D03*
D13*
X114724999Y-88049999D03*
D14*
X118000000Y-99900000D03*
X113000000Y-97800000D03*
X123000000Y-97800000D03*
D13*
X126274999Y-90249999D03*
%TD*%
D10*
%TO.C,Sw11*%
X148500000Y-109000000D03*
D11*
X149000000Y-105250000D03*
X154000000Y-103050000D03*
D12*
X154000000Y-109000000D03*
D11*
X159000000Y-105250000D03*
D10*
X159500000Y-109000000D03*
D13*
X150724999Y-103049999D03*
D14*
X154000000Y-114900000D03*
X149000000Y-112800000D03*
X159000000Y-112800000D03*
D13*
X162274999Y-105249999D03*
%TD*%
D15*
%TO.C,REF\u002A\u002A*%
X110000000Y-159000000D03*
%TD*%
D10*
%TO.C,Sw2*%
X94500000Y-100000000D03*
D11*
X95000000Y-96250000D03*
X100000000Y-94050000D03*
D12*
X100000000Y-100000000D03*
D11*
X105000000Y-96250000D03*
D10*
X105500000Y-100000000D03*
D13*
X96724999Y-94049999D03*
D14*
X100000000Y-105900000D03*
X95000000Y-103800000D03*
X105000000Y-103800000D03*
D13*
X108274999Y-96249999D03*
%TD*%
D10*
%TO.C,Sw13*%
X112500000Y-149000000D03*
D11*
X113000000Y-145250000D03*
X118000000Y-143050000D03*
D12*
X118000000Y-149000000D03*
D11*
X123000000Y-145250000D03*
D10*
X123500000Y-149000000D03*
D13*
X114724999Y-143049999D03*
D14*
X118000000Y-154900000D03*
X113000000Y-152800000D03*
X123000000Y-152800000D03*
D13*
X126274999Y-145249999D03*
%TD*%
D10*
%TO.C,Sw7*%
X94500000Y-151000000D03*
D11*
X95000000Y-147250000D03*
X100000000Y-145050000D03*
D12*
X100000000Y-151000000D03*
D11*
X105000000Y-147250000D03*
D10*
X105500000Y-151000000D03*
D13*
X96724999Y-145049999D03*
D14*
X100000000Y-156900000D03*
X95000000Y-154800000D03*
X105000000Y-154800000D03*
D13*
X108274999Y-147249999D03*
%TD*%
D10*
%TO.C,Sw14*%
X94500000Y-134000000D03*
D11*
X95000000Y-130250000D03*
X100000000Y-128050000D03*
D12*
X100000000Y-134000000D03*
D11*
X105000000Y-130250000D03*
D10*
X105500000Y-134000000D03*
D13*
X96724999Y-128049999D03*
D14*
X100000000Y-139900000D03*
X95000000Y-137800000D03*
X105000000Y-137800000D03*
D13*
X108274999Y-130249999D03*
%TD*%
D10*
%TO.C,Sw12*%
X166500000Y-122000000D03*
D11*
X167000000Y-118250000D03*
X172000000Y-116050000D03*
D12*
X172000000Y-122000000D03*
D11*
X177000000Y-118250000D03*
D10*
X177500000Y-122000000D03*
D13*
X168724999Y-116049999D03*
D14*
X172000000Y-127900000D03*
X167000000Y-125800000D03*
X177000000Y-125800000D03*
D13*
X180274999Y-118249999D03*
%TD*%
D10*
%TO.C,Sw8*%
X94500000Y-117000000D03*
D11*
X95000000Y-113250000D03*
X100000000Y-111050000D03*
D12*
X100000000Y-117000000D03*
D11*
X105000000Y-113250000D03*
D10*
X105500000Y-117000000D03*
D13*
X96724999Y-111049999D03*
D14*
X100000000Y-122900000D03*
X95000000Y-120800000D03*
X105000000Y-120800000D03*
D13*
X108274999Y-113249999D03*
%TD*%
D15*
%TO.C,REF\u002A\u002A*%
X102000000Y-82000000D03*
%TD*%
D10*
%TO.C,Sw18*%
X166500000Y-139000000D03*
D11*
X167000000Y-135250000D03*
X172000000Y-133050000D03*
D12*
X172000000Y-139000000D03*
D11*
X177000000Y-135250000D03*
D10*
X177500000Y-139000000D03*
D13*
X168724999Y-133049999D03*
D14*
X172000000Y-144900000D03*
X167000000Y-142800000D03*
X177000000Y-142800000D03*
D13*
X180274999Y-135249999D03*
%TD*%
D21*
%TO.C,PWR2*%
X96599999Y-78706999D03*
D22*
X89399999Y-78706999D03*
D18*
X94450000Y-79850000D03*
X91550000Y-79850000D03*
D22*
X96599999Y-80992999D03*
D21*
X89399999Y-80992999D03*
D23*
X90799999Y-81699999D03*
X93699999Y-81699999D03*
X95199999Y-81699999D03*
%TD*%
M02*
