%TF.GenerationSoftware,KiCad,Pcbnew,(7.0.0)*%
%TF.CreationDate,2023-09-04T00:10:11+01:00*%
%TF.ProjectId,Razer36_V2,52617a65-7233-4365-9f56-322e6b696361,rev?*%
%TF.SameCoordinates,Original*%
%TF.FileFunction,Soldermask,Top*%
%TF.FilePolarity,Negative*%
%FSLAX46Y46*%
G04 Gerber Fmt 4.6, Leading zero omitted, Abs format (unit mm)*
G04 Created by KiCad (PCBNEW (7.0.0)) date 2023-09-04 00:10:11*
%MOMM*%
%LPD*%
G01*
G04 APERTURE LIST*
G04 Aperture macros list*
%AMRoundRect*
0 Rectangle with rounded corners*
0 $1 Rounding radius*
0 $2 $3 $4 $5 $6 $7 $8 $9 X,Y pos of 4 corners*
0 Add a 4 corners polygon primitive as box body*
4,1,4,$2,$3,$4,$5,$6,$7,$8,$9,$2,$3,0*
0 Add four circle primitives for the rounded corners*
1,1,$1+$1,$2,$3*
1,1,$1+$1,$4,$5*
1,1,$1+$1,$6,$7*
1,1,$1+$1,$8,$9*
0 Add four rect primitives between the rounded corners*
20,1,$1+$1,$2,$3,$4,$5,0*
20,1,$1+$1,$4,$5,$6,$7,0*
20,1,$1+$1,$6,$7,$8,$9,0*
20,1,$1+$1,$8,$9,$2,$3,0*%
G04 Aperture macros list end*
%ADD10C,1.701800*%
%ADD11C,3.000000*%
%ADD12C,3.429000*%
%ADD13C,2.032000*%
%ADD14R,2.600000X2.600000*%
%ADD15C,3.200000*%
%ADD16RoundRect,0.225000X-0.375000X0.225000X-0.375000X-0.225000X0.375000X-0.225000X0.375000X0.225000X0*%
%ADD17O,2.750000X1.800000*%
%ADD18C,1.397000*%
%ADD19R,1.000000X0.600000*%
%ADD20R,1.100000X0.600000*%
%ADD21C,0.700000*%
%ADD22R,0.600000X1.000000*%
%ADD23R,1.700000X1.700000*%
%ADD24O,1.700000X1.700000*%
%ADD25RoundRect,0.200000X-0.200000X-0.275000X0.200000X-0.275000X0.200000X0.275000X-0.200000X0.275000X0*%
G04 APERTURE END LIST*
D10*
%TO.C,Sw4*%
X130500000Y-88000000D03*
D11*
X131000000Y-84250000D03*
X136000000Y-82050000D03*
D12*
X136000000Y-88000000D03*
D11*
X141000000Y-84250000D03*
D10*
X141500000Y-88000000D03*
D13*
X136000000Y-93900000D03*
D14*
X139274999Y-82049999D03*
X127724999Y-84249999D03*
D13*
X131000000Y-91800000D03*
X141000000Y-91800000D03*
%TD*%
D15*
%TO.C,REF\u002A\u002A*%
X80000000Y-136000000D03*
%TD*%
D10*
%TO.C,Sw17*%
X148500000Y-126000000D03*
D11*
X149000000Y-122250000D03*
X154000000Y-120050000D03*
D12*
X154000000Y-126000000D03*
D11*
X159000000Y-122250000D03*
D10*
X159500000Y-126000000D03*
D13*
X154000000Y-131900000D03*
D14*
X157274999Y-120049999D03*
X145724999Y-122249999D03*
D13*
X149000000Y-129800000D03*
X159000000Y-129800000D03*
%TD*%
D16*
%TO.C,D4*%
X124500000Y-80850000D03*
X124500000Y-84150000D03*
%TD*%
%TO.C,D6*%
X163500000Y-95350000D03*
X163500000Y-98650000D03*
%TD*%
%TO.C,D8*%
X91250000Y-106850000D03*
X91250000Y-110150000D03*
%TD*%
%TO.C,D9*%
X109250000Y-101250000D03*
X109250000Y-104550000D03*
%TD*%
D10*
%TO.C,Sw15*%
X112500000Y-128000000D03*
D11*
X113000000Y-124250000D03*
X118000000Y-122050000D03*
D12*
X118000000Y-128000000D03*
D11*
X123000000Y-124250000D03*
D10*
X123500000Y-128000000D03*
D13*
X118000000Y-133900000D03*
D14*
X121274999Y-122049999D03*
X109724999Y-124249999D03*
D13*
X113000000Y-131800000D03*
X123000000Y-131800000D03*
%TD*%
D17*
%TO.C,U1*%
X70404999Y-81379999D03*
X70404999Y-83919999D03*
X70404999Y-86459999D03*
X70404999Y-88999999D03*
X70404999Y-91539999D03*
X70404999Y-94079999D03*
X70404999Y-96619999D03*
X86594999Y-96619999D03*
X86594999Y-94079999D03*
X86594999Y-91539999D03*
X86594999Y-88999999D03*
X86594999Y-86459999D03*
X86594999Y-83919999D03*
X86594999Y-81379999D03*
D18*
X77230000Y-80428000D03*
X79770000Y-80428000D03*
X77230000Y-82968000D03*
X79770000Y-82968000D03*
X74055000Y-88683000D03*
X74055000Y-86778000D03*
X82310000Y-98208000D03*
X84215000Y-98208000D03*
%TD*%
D16*
%TO.C,D14*%
X91000000Y-124350000D03*
X91000000Y-127650000D03*
%TD*%
D15*
%TO.C,REF\u002A\u002A*%
X70000000Y-103000000D03*
%TD*%
D16*
%TO.C,D3*%
X109000000Y-84350000D03*
X109000000Y-87650000D03*
%TD*%
%TO.C,D7*%
X91250000Y-141350000D03*
X91250000Y-144650000D03*
%TD*%
%TO.C,D10*%
X127250000Y-95350000D03*
X127250000Y-98650000D03*
%TD*%
D19*
%TO.C,PWR1*%
X96599999Y-78706999D03*
D20*
X89399999Y-78706999D03*
D21*
X94450000Y-79850000D03*
X91550000Y-79850000D03*
D20*
X96599999Y-80992999D03*
D19*
X89399999Y-80992999D03*
D22*
X95199999Y-81699999D03*
X92299999Y-81699999D03*
X90799999Y-81699999D03*
%TD*%
D15*
%TO.C,REF\u002A\u002A*%
X163000000Y-82000000D03*
%TD*%
D16*
%TO.C,D17*%
X145250000Y-116350000D03*
X145250000Y-119650000D03*
%TD*%
%TO.C,D5*%
X145500000Y-82350000D03*
X145500000Y-85650000D03*
%TD*%
D23*
%TO.C,J1*%
X77999999Y-101999999D03*
D24*
X80539999Y-101999999D03*
X83079999Y-101999999D03*
X85619999Y-101999999D03*
%TD*%
D10*
%TO.C,Sw16*%
X130500000Y-122000000D03*
D11*
X131000000Y-118250000D03*
X136000000Y-116050000D03*
D12*
X136000000Y-122000000D03*
D11*
X141000000Y-118250000D03*
D10*
X141500000Y-122000000D03*
D13*
X136000000Y-127900000D03*
D14*
X139274999Y-116049999D03*
X127724999Y-118249999D03*
D13*
X131000000Y-125800000D03*
X141000000Y-125800000D03*
%TD*%
D15*
%TO.C,REF\u002A\u002A*%
X160000000Y-145000000D03*
%TD*%
D16*
%TO.C,D11*%
X145000000Y-99350000D03*
X145000000Y-102650000D03*
%TD*%
D10*
%TO.C,Sw9*%
X112500000Y-111000000D03*
D11*
X113000000Y-107250000D03*
X118000000Y-105050000D03*
D12*
X118000000Y-111000000D03*
D11*
X123000000Y-107250000D03*
D10*
X123500000Y-111000000D03*
D13*
X118000000Y-116900000D03*
D14*
X121274999Y-105049999D03*
X109724999Y-107249999D03*
D13*
X113000000Y-114800000D03*
X123000000Y-114800000D03*
%TD*%
D10*
%TO.C,Sw1*%
X76500000Y-153000000D03*
D11*
X77000000Y-149250000D03*
X82000000Y-147050000D03*
D12*
X82000000Y-153000000D03*
D11*
X87000000Y-149250000D03*
D10*
X87500000Y-153000000D03*
D13*
X82000000Y-158900000D03*
D14*
X85274999Y-147049999D03*
X73724999Y-149249999D03*
D13*
X77000000Y-156800000D03*
X87000000Y-156800000D03*
%TD*%
D10*
%TO.C,Sw10*%
X130500000Y-105000000D03*
D11*
X131000000Y-101250000D03*
X136000000Y-99050000D03*
D12*
X136000000Y-105000000D03*
D11*
X141000000Y-101250000D03*
D10*
X141500000Y-105000000D03*
D13*
X136000000Y-110900000D03*
D14*
X139274999Y-99049999D03*
X127724999Y-101249999D03*
D13*
X131000000Y-108800000D03*
X141000000Y-108800000D03*
%TD*%
D25*
%TO.C,R1*%
X81675000Y-125500000D03*
X83325000Y-125500000D03*
%TD*%
D16*
%TO.C,D13*%
X109000000Y-139100000D03*
X109000000Y-142400000D03*
%TD*%
%TO.C,D1*%
X75500000Y-141600000D03*
X75500000Y-144900000D03*
%TD*%
D10*
%TO.C,Sw5*%
X148500000Y-92000000D03*
D11*
X149000000Y-88250000D03*
X154000000Y-86050000D03*
D12*
X154000000Y-92000000D03*
D11*
X159000000Y-88250000D03*
D10*
X159500000Y-92000000D03*
D13*
X154000000Y-97900000D03*
D14*
X157274999Y-86049999D03*
X145724999Y-88249999D03*
D13*
X149000000Y-95800000D03*
X159000000Y-95800000D03*
%TD*%
D16*
%TO.C,D15*%
X109500000Y-118350000D03*
X109500000Y-121650000D03*
%TD*%
%TO.C,D16*%
X127250000Y-112350000D03*
X127250000Y-115650000D03*
%TD*%
D23*
%TO.C,J3*%
X90499999Y-84499999D03*
%TD*%
D10*
%TO.C,Sw6*%
X166500000Y-105000000D03*
D11*
X167000000Y-101250000D03*
X172000000Y-99050000D03*
D12*
X172000000Y-105000000D03*
D11*
X177000000Y-101250000D03*
D10*
X177500000Y-105000000D03*
D13*
X172000000Y-110900000D03*
D14*
X175274999Y-99049999D03*
X163724999Y-101249999D03*
D13*
X167000000Y-108800000D03*
X177000000Y-108800000D03*
%TD*%
D10*
%TO.C,Sw3*%
X112500000Y-94000000D03*
D11*
X113000000Y-90250000D03*
X118000000Y-88050000D03*
D12*
X118000000Y-94000000D03*
D11*
X123000000Y-90250000D03*
D10*
X123500000Y-94000000D03*
D13*
X118000000Y-99900000D03*
D14*
X121274999Y-88049999D03*
X109724999Y-90249999D03*
D13*
X113000000Y-97800000D03*
X123000000Y-97800000D03*
%TD*%
D10*
%TO.C,Sw11*%
X148500000Y-109000000D03*
D11*
X149000000Y-105250000D03*
X154000000Y-103050000D03*
D12*
X154000000Y-109000000D03*
D11*
X159000000Y-105250000D03*
D10*
X159500000Y-109000000D03*
D13*
X154000000Y-114900000D03*
D14*
X157274999Y-103049999D03*
X145724999Y-105249999D03*
D13*
X149000000Y-112800000D03*
X159000000Y-112800000D03*
%TD*%
D15*
%TO.C,REF\u002A\u002A*%
X110000000Y-159000000D03*
%TD*%
D10*
%TO.C,Sw2*%
X94500000Y-100000000D03*
D11*
X95000000Y-96250000D03*
X100000000Y-94050000D03*
D12*
X100000000Y-100000000D03*
D11*
X105000000Y-96250000D03*
D10*
X105500000Y-100000000D03*
D13*
X100000000Y-105900000D03*
D14*
X103274999Y-94049999D03*
X91724999Y-96249999D03*
D13*
X95000000Y-103800000D03*
X105000000Y-103800000D03*
%TD*%
D10*
%TO.C,Sw13*%
X112500000Y-149000000D03*
D11*
X113000000Y-145250000D03*
X118000000Y-143050000D03*
D12*
X118000000Y-149000000D03*
D11*
X123000000Y-145250000D03*
D10*
X123500000Y-149000000D03*
D13*
X118000000Y-154900000D03*
D14*
X121274999Y-143049999D03*
X109724999Y-145249999D03*
D13*
X113000000Y-152800000D03*
X123000000Y-152800000D03*
%TD*%
D10*
%TO.C,Sw7*%
X94500000Y-151000000D03*
D11*
X95000000Y-147250000D03*
X100000000Y-145050000D03*
D12*
X100000000Y-151000000D03*
D11*
X105000000Y-147250000D03*
D10*
X105500000Y-151000000D03*
D13*
X100000000Y-156900000D03*
D14*
X103274999Y-145049999D03*
X91724999Y-147249999D03*
D13*
X95000000Y-154800000D03*
X105000000Y-154800000D03*
%TD*%
D10*
%TO.C,Sw14*%
X94500000Y-134000000D03*
D11*
X95000000Y-130250000D03*
X100000000Y-128050000D03*
D12*
X100000000Y-134000000D03*
D11*
X105000000Y-130250000D03*
D10*
X105500000Y-134000000D03*
D13*
X100000000Y-139900000D03*
D14*
X103274999Y-128049999D03*
X91724999Y-130249999D03*
D13*
X95000000Y-137800000D03*
X105000000Y-137800000D03*
%TD*%
D25*
%TO.C,R3*%
X81675000Y-129000000D03*
X83325000Y-129000000D03*
%TD*%
D16*
%TO.C,D12*%
X163000000Y-112350000D03*
X163000000Y-115650000D03*
%TD*%
D10*
%TO.C,Sw12*%
X166500000Y-122000000D03*
D11*
X167000000Y-118250000D03*
X172000000Y-116050000D03*
D12*
X172000000Y-122000000D03*
D11*
X177000000Y-118250000D03*
D10*
X177500000Y-122000000D03*
D13*
X172000000Y-127900000D03*
D14*
X175274999Y-116049999D03*
X163724999Y-118249999D03*
D13*
X167000000Y-125800000D03*
X177000000Y-125800000D03*
%TD*%
D25*
%TO.C,R2*%
X81675000Y-127250000D03*
X83325000Y-127250000D03*
%TD*%
D10*
%TO.C,Sw8*%
X94500000Y-117000000D03*
D11*
X95000000Y-113250000D03*
X100000000Y-111050000D03*
D12*
X100000000Y-117000000D03*
D11*
X105000000Y-113250000D03*
D10*
X105500000Y-117000000D03*
D13*
X100000000Y-122900000D03*
D14*
X103274999Y-111049999D03*
X91724999Y-113249999D03*
D13*
X95000000Y-120800000D03*
X105000000Y-120800000D03*
%TD*%
D15*
%TO.C,REF\u002A\u002A*%
X102000000Y-82000000D03*
%TD*%
D16*
%TO.C,D2*%
X91000000Y-90600000D03*
X91000000Y-93900000D03*
%TD*%
%TO.C,D18*%
X163500000Y-128850000D03*
X163500000Y-132150000D03*
%TD*%
D10*
%TO.C,Sw18*%
X166500000Y-139000000D03*
D11*
X167000000Y-135250000D03*
X172000000Y-133050000D03*
D12*
X172000000Y-139000000D03*
D11*
X177000000Y-135250000D03*
D10*
X177500000Y-139000000D03*
D13*
X172000000Y-144900000D03*
D14*
X175274999Y-133049999D03*
X163724999Y-135249999D03*
D13*
X167000000Y-142800000D03*
X177000000Y-142800000D03*
%TD*%
D21*
%TO.C,PWR2*%
X94450000Y-79850000D03*
X91550000Y-79850000D03*
%TD*%
M02*
