%TF.GenerationSoftware,KiCad,Pcbnew,(7.0.0)*%
%TF.CreationDate,2023-09-04T00:10:10+01:00*%
%TF.ProjectId,Razer36_V2,52617a65-7233-4365-9f56-322e6b696361,rev?*%
%TF.SameCoordinates,Original*%
%TF.FileFunction,Copper,L1,Top*%
%TF.FilePolarity,Positive*%
%FSLAX46Y46*%
G04 Gerber Fmt 4.6, Leading zero omitted, Abs format (unit mm)*
G04 Created by KiCad (PCBNEW (7.0.0)) date 2023-09-04 00:10:10*
%MOMM*%
%LPD*%
G01*
G04 APERTURE LIST*
G04 Aperture macros list*
%AMRoundRect*
0 Rectangle with rounded corners*
0 $1 Rounding radius*
0 $2 $3 $4 $5 $6 $7 $8 $9 X,Y pos of 4 corners*
0 Add a 4 corners polygon primitive as box body*
4,1,4,$2,$3,$4,$5,$6,$7,$8,$9,$2,$3,0*
0 Add four circle primitives for the rounded corners*
1,1,$1+$1,$2,$3*
1,1,$1+$1,$4,$5*
1,1,$1+$1,$6,$7*
1,1,$1+$1,$8,$9*
0 Add four rect primitives between the rounded corners*
20,1,$1+$1,$2,$3,$4,$5,0*
20,1,$1+$1,$4,$5,$6,$7,0*
20,1,$1+$1,$6,$7,$8,$9,0*
20,1,$1+$1,$8,$9,$2,$3,0*%
G04 Aperture macros list end*
%TA.AperFunction,ComponentPad*%
%ADD10C,2.032000*%
%TD*%
%TA.AperFunction,SMDPad,CuDef*%
%ADD11R,2.600000X2.600000*%
%TD*%
%TA.AperFunction,SMDPad,CuDef*%
%ADD12RoundRect,0.225000X-0.375000X0.225000X-0.375000X-0.225000X0.375000X-0.225000X0.375000X0.225000X0*%
%TD*%
%TA.AperFunction,ComponentPad*%
%ADD13O,2.750000X1.800000*%
%TD*%
%TA.AperFunction,ComponentPad*%
%ADD14C,1.397000*%
%TD*%
%TA.AperFunction,SMDPad,CuDef*%
%ADD15R,1.000000X0.600000*%
%TD*%
%TA.AperFunction,SMDPad,CuDef*%
%ADD16R,1.100000X0.600000*%
%TD*%
%TA.AperFunction,SMDPad,CuDef*%
%ADD17R,0.600000X1.000000*%
%TD*%
%TA.AperFunction,ComponentPad*%
%ADD18R,1.700000X1.700000*%
%TD*%
%TA.AperFunction,ComponentPad*%
%ADD19O,1.700000X1.700000*%
%TD*%
%TA.AperFunction,SMDPad,CuDef*%
%ADD20RoundRect,0.200000X-0.200000X-0.275000X0.200000X-0.275000X0.200000X0.275000X-0.200000X0.275000X0*%
%TD*%
%TA.AperFunction,ViaPad*%
%ADD21C,0.800000*%
%TD*%
%TA.AperFunction,Conductor*%
%ADD22C,0.250000*%
%TD*%
G04 APERTURE END LIST*
D10*
%TO.P,Sw4,1,NE*%
%TO.N,Net-(D4-A)*%
X136000000Y-93900000D03*
D11*
X139274999Y-82049999D03*
%TO.P,Sw4,2,SW*%
%TO.N,col3*%
X127724999Y-84249999D03*
D10*
X131000000Y-91800000D03*
X141000000Y-91800000D03*
%TD*%
%TO.P,Sw17,1,NE*%
%TO.N,Net-(D17-A)*%
X154000000Y-131900000D03*
D11*
X157274999Y-120049999D03*
%TO.P,Sw17,2,NW*%
%TO.N,col4*%
X145724999Y-122249999D03*
D10*
X149000000Y-129800000D03*
X159000000Y-129800000D03*
%TD*%
D12*
%TO.P,D4,1,K*%
%TO.N,Net-(D1-K)*%
X124500000Y-80850000D03*
%TO.P,D4,2,A*%
%TO.N,Net-(D4-A)*%
X124500000Y-84150000D03*
%TD*%
%TO.P,D6,1,K*%
%TO.N,Net-(D1-K)*%
X163500000Y-95350000D03*
%TO.P,D6,2,A*%
%TO.N,Net-(D6-A)*%
X163500000Y-98650000D03*
%TD*%
%TO.P,D8,1,K*%
%TO.N,Net-(D10-K)*%
X91250000Y-106850000D03*
%TO.P,D8,2,A*%
%TO.N,Net-(D8-A)*%
X91250000Y-110150000D03*
%TD*%
%TO.P,D9,1,K*%
%TO.N,Net-(D10-K)*%
X109250000Y-101250000D03*
%TO.P,D9,2,A*%
%TO.N,Net-(D9-A)*%
X109250000Y-104550000D03*
%TD*%
D10*
%TO.P,Sw15,1,NE*%
%TO.N,Net-(D15-A)*%
X118000000Y-133900000D03*
D11*
X121274999Y-122049999D03*
%TO.P,Sw15,2,NW*%
%TO.N,col2*%
X109724999Y-124249999D03*
D10*
X113000000Y-131800000D03*
X123000000Y-131800000D03*
%TD*%
D13*
%TO.P,U1,1,A2/0.02_H*%
%TO.N,row0*%
X70404999Y-81379999D03*
%TO.P,U1,2,A4/0.03_H*%
%TO.N,row1*%
X70404999Y-83919999D03*
%TO.P,U1,3,A10/0.28*%
%TO.N,row2*%
X70404999Y-86459999D03*
%TO.P,U1,4,A11/0.29*%
%TO.N,col0*%
X70404999Y-88999999D03*
%TO.P,U1,5,A8_SDA/0.04_H*%
%TO.N,Net-(J1-Pin_1)*%
X70404999Y-91539999D03*
%TO.P,U1,6,A9_SCL/0.05_H*%
%TO.N,Net-(J1-Pin_2)*%
X70404999Y-94079999D03*
%TO.P,U1,7,B8_TX/1.11*%
%TO.N,col1*%
X70404999Y-96619999D03*
%TO.P,U1,8,B9_RX/1.12*%
%TO.N,col2*%
X86594999Y-96619999D03*
%TO.P,U1,9,A7_SCK/1.13*%
%TO.N,col3*%
X86594999Y-94079999D03*
%TO.P,U1,10,A5_MISO/1.14*%
%TO.N,col4*%
X86594999Y-91539999D03*
%TO.P,U1,11,A6_MOSI/1.15*%
%TO.N,col5*%
X86594999Y-88999999D03*
%TO.P,U1,12,3V3*%
%TO.N,Net-(J1-Pin_4)*%
X86594999Y-86459999D03*
%TO.P,U1,13,GND*%
%TO.N,Net-(J1-Pin_3)*%
X86594999Y-83919999D03*
%TO.P,U1,14,5V*%
%TO.N,unconnected-(U1-5V-Pad14)*%
X86594999Y-81379999D03*
D14*
%TO.P,U1,15,A31_SWDIO*%
%TO.N,unconnected-(U1-A31_SWDIO-Pad15)*%
X77230000Y-80428000D03*
%TO.P,U1,16,A30_SWCLK*%
%TO.N,unconnected-(U1-A30_SWCLK-Pad16)*%
X79770000Y-80428000D03*
%TO.P,U1,17,RESET*%
%TO.N,unconnected-(U1-RESET-Pad17)*%
X77230000Y-82968000D03*
%TO.P,U1,18,GND*%
%TO.N,unconnected-(U1-GND-Pad18)*%
X79770000Y-82968000D03*
%TO.P,U1,19,BAT*%
%TO.N,unconnected-(U1-BAT-Pad19)*%
X74055000Y-88683000D03*
%TO.P,U1,20,GND*%
%TO.N,unconnected-(U1-GND-Pad20)*%
X74055000Y-86778000D03*
%TO.P,U1,21,NFC1/0.09_H*%
%TO.N,unconnected-(U1-NFC1{slash}0.09_H-Pad21)*%
X82310000Y-98208000D03*
%TO.P,U1,22,NFC2/0.10_H*%
%TO.N,unconnected-(U1-NFC2{slash}0.10_H-Pad22)*%
X84215000Y-98208000D03*
%TD*%
D12*
%TO.P,D14,1,K*%
%TO.N,Net-(D13-K)*%
X91000000Y-124350000D03*
%TO.P,D14,2,A*%
%TO.N,Net-(D14-A)*%
X91000000Y-127650000D03*
%TD*%
%TO.P,D3,1,K*%
%TO.N,Net-(D1-K)*%
X109000000Y-84350000D03*
%TO.P,D3,2,A*%
%TO.N,Net-(D3-A)*%
X109000000Y-87650000D03*
%TD*%
%TO.P,D7,1,K*%
%TO.N,Net-(D10-K)*%
X91250000Y-141350000D03*
%TO.P,D7,2,A*%
%TO.N,Net-(D7-A)*%
X91250000Y-144650000D03*
%TD*%
%TO.P,D10,1,K*%
%TO.N,Net-(D10-K)*%
X127250000Y-95350000D03*
%TO.P,D10,2,A*%
%TO.N,Net-(D10-A)*%
X127250000Y-98650000D03*
%TD*%
D15*
%TO.P,PWR1,*%
%TO.N,*%
X96599999Y-78706999D03*
D16*
X89399999Y-78706999D03*
X96599999Y-80992999D03*
D15*
X89399999Y-80992999D03*
D17*
%TO.P,PWR1,1,A*%
%TO.N,Net-(J1-Pin_3)*%
X95199999Y-81699999D03*
%TO.P,PWR1,2,B*%
%TO.N,/Bat_Gnd*%
X92299999Y-81699999D03*
%TO.P,PWR1,3,C*%
%TO.N,unconnected-(PWR1-C-Pad3)*%
X90799999Y-81699999D03*
%TD*%
D12*
%TO.P,D17,1,K*%
%TO.N,Net-(D13-K)*%
X145250000Y-116350000D03*
%TO.P,D17,2,A*%
%TO.N,Net-(D17-A)*%
X145250000Y-119650000D03*
%TD*%
%TO.P,D5,1,K*%
%TO.N,Net-(D1-K)*%
X145500000Y-82350000D03*
%TO.P,D5,2,A*%
%TO.N,Net-(D5-A)*%
X145500000Y-85650000D03*
%TD*%
D18*
%TO.P,J1,1,Pin_1*%
%TO.N,Net-(J1-Pin_1)*%
X77999999Y-101999999D03*
D19*
%TO.P,J1,2,Pin_2*%
%TO.N,Net-(J1-Pin_2)*%
X80539999Y-101999999D03*
%TO.P,J1,3,Pin_3*%
%TO.N,Net-(J1-Pin_3)*%
X83079999Y-101999999D03*
%TO.P,J1,4,Pin_4*%
%TO.N,Net-(J1-Pin_4)*%
X85619999Y-101999999D03*
%TD*%
D10*
%TO.P,Sw16,1,NE*%
%TO.N,Net-(D16-A)*%
X136000000Y-127900000D03*
D11*
X139274999Y-116049999D03*
%TO.P,Sw16,2,NW*%
%TO.N,col3*%
X127724999Y-118249999D03*
D10*
X131000000Y-125800000D03*
X141000000Y-125800000D03*
%TD*%
D12*
%TO.P,D11,1,K*%
%TO.N,Net-(D10-K)*%
X145000000Y-99350000D03*
%TO.P,D11,2,A*%
%TO.N,Net-(D11-A)*%
X145000000Y-102650000D03*
%TD*%
D10*
%TO.P,Sw9,1,NE*%
%TO.N,Net-(D9-A)*%
X118000000Y-116900000D03*
D11*
X121274999Y-105049999D03*
%TO.P,Sw9,2,NW*%
%TO.N,col2*%
X109724999Y-107249999D03*
D10*
X113000000Y-114800000D03*
X123000000Y-114800000D03*
%TD*%
%TO.P,Sw1,1,NE*%
%TO.N,Net-(D1-A)*%
X82000000Y-158900000D03*
D11*
X85274999Y-147049999D03*
%TO.P,Sw1,2,SW*%
%TO.N,col0*%
X73724999Y-149249999D03*
D10*
X77000000Y-156800000D03*
X87000000Y-156800000D03*
%TD*%
%TO.P,Sw10,1,NE*%
%TO.N,Net-(D10-A)*%
X136000000Y-110900000D03*
D11*
X139274999Y-99049999D03*
%TO.P,Sw10,2,NW*%
%TO.N,col3*%
X127724999Y-101249999D03*
D10*
X131000000Y-108800000D03*
X141000000Y-108800000D03*
%TD*%
D20*
%TO.P,R1,1*%
%TO.N,row0*%
X81675000Y-125500000D03*
%TO.P,R1,2*%
%TO.N,Net-(D1-K)*%
X83325000Y-125500000D03*
%TD*%
D12*
%TO.P,D13,1,K*%
%TO.N,Net-(D13-K)*%
X109000000Y-139100000D03*
%TO.P,D13,2,A*%
%TO.N,Net-(D13-A)*%
X109000000Y-142400000D03*
%TD*%
%TO.P,D1,1,K*%
%TO.N,Net-(D1-K)*%
X75500000Y-141600000D03*
%TO.P,D1,2,A*%
%TO.N,Net-(D1-A)*%
X75500000Y-144900000D03*
%TD*%
D10*
%TO.P,Sw5,1,NE*%
%TO.N,Net-(D5-A)*%
X154000000Y-97900000D03*
D11*
X157274999Y-86049999D03*
%TO.P,Sw5,2,SW*%
%TO.N,col4*%
X145724999Y-88249999D03*
D10*
X149000000Y-95800000D03*
X159000000Y-95800000D03*
%TD*%
D12*
%TO.P,D15,1,K*%
%TO.N,Net-(D13-K)*%
X109500000Y-118350000D03*
%TO.P,D15,2,A*%
%TO.N,Net-(D15-A)*%
X109500000Y-121650000D03*
%TD*%
%TO.P,D16,1,K*%
%TO.N,Net-(D13-K)*%
X127250000Y-112350000D03*
%TO.P,D16,2,A*%
%TO.N,Net-(D16-A)*%
X127250000Y-115650000D03*
%TD*%
D18*
%TO.P,J3,1,Pin_1*%
%TO.N,/Bat_Gnd*%
X90499999Y-84499999D03*
%TD*%
D10*
%TO.P,Sw6,1,NE*%
%TO.N,Net-(D6-A)*%
X172000000Y-110900000D03*
D11*
X175274999Y-99049999D03*
%TO.P,Sw6,2,SW*%
%TO.N,col5*%
X163724999Y-101249999D03*
D10*
X167000000Y-108800000D03*
X177000000Y-108800000D03*
%TD*%
%TO.P,Sw3,1,NE*%
%TO.N,Net-(D3-A)*%
X118000000Y-99900000D03*
D11*
X121274999Y-88049999D03*
%TO.P,Sw3,2,SW*%
%TO.N,col2*%
X109724999Y-90249999D03*
D10*
X113000000Y-97800000D03*
X123000000Y-97800000D03*
%TD*%
%TO.P,Sw11,1,NE*%
%TO.N,Net-(D11-A)*%
X154000000Y-114900000D03*
D11*
X157274999Y-103049999D03*
%TO.P,Sw11,2,NW*%
%TO.N,col4*%
X145724999Y-105249999D03*
D10*
X149000000Y-112800000D03*
X159000000Y-112800000D03*
%TD*%
%TO.P,Sw2,1,NE*%
%TO.N,Net-(D2-A)*%
X100000000Y-105900000D03*
D11*
X103274999Y-94049999D03*
%TO.P,Sw2,2,SW*%
%TO.N,col1*%
X91724999Y-96249999D03*
D10*
X95000000Y-103800000D03*
X105000000Y-103800000D03*
%TD*%
%TO.P,Sw13,1,NE*%
%TO.N,Net-(D13-A)*%
X118000000Y-154900000D03*
D11*
X121274999Y-143049999D03*
%TO.P,Sw13,2,NW*%
%TO.N,col0*%
X109724999Y-145249999D03*
D10*
X113000000Y-152800000D03*
X123000000Y-152800000D03*
%TD*%
%TO.P,Sw7,1,NE*%
%TO.N,Net-(D7-A)*%
X100000000Y-156900000D03*
D11*
X103274999Y-145049999D03*
%TO.P,Sw7,2,NW*%
%TO.N,col0*%
X91724999Y-147249999D03*
D10*
X95000000Y-154800000D03*
X105000000Y-154800000D03*
%TD*%
%TO.P,Sw14,1,NE*%
%TO.N,Net-(D14-A)*%
X100000000Y-139900000D03*
D11*
X103274999Y-128049999D03*
%TO.P,Sw14,2,NW*%
%TO.N,col1*%
X91724999Y-130249999D03*
D10*
X95000000Y-137800000D03*
X105000000Y-137800000D03*
%TD*%
D20*
%TO.P,R3,1*%
%TO.N,row2*%
X81675000Y-129000000D03*
%TO.P,R3,2*%
%TO.N,Net-(D13-K)*%
X83325000Y-129000000D03*
%TD*%
D12*
%TO.P,D12,1,K*%
%TO.N,Net-(D10-K)*%
X163000000Y-112350000D03*
%TO.P,D12,2,A*%
%TO.N,Net-(D12-A)*%
X163000000Y-115650000D03*
%TD*%
D10*
%TO.P,Sw12,1,NE*%
%TO.N,Net-(D12-A)*%
X172000000Y-127900000D03*
D11*
X175274999Y-116049999D03*
%TO.P,Sw12,2,SW*%
%TO.N,col5*%
X163724999Y-118249999D03*
D10*
X167000000Y-125800000D03*
X177000000Y-125800000D03*
%TD*%
D20*
%TO.P,R2,1*%
%TO.N,row1*%
X81675000Y-127250000D03*
%TO.P,R2,2*%
%TO.N,Net-(D10-K)*%
X83325000Y-127250000D03*
%TD*%
D10*
%TO.P,Sw8,1,NE*%
%TO.N,Net-(D8-A)*%
X100000000Y-122900000D03*
D11*
X103274999Y-111049999D03*
%TO.P,Sw8,2,SW*%
%TO.N,col1*%
X91724999Y-113249999D03*
D10*
X95000000Y-120800000D03*
X105000000Y-120800000D03*
%TD*%
D12*
%TO.P,D2,1,K*%
%TO.N,Net-(D1-K)*%
X91000000Y-90600000D03*
%TO.P,D2,2,A*%
%TO.N,Net-(D2-A)*%
X91000000Y-93900000D03*
%TD*%
%TO.P,D18,1,K*%
%TO.N,Net-(D13-K)*%
X163500000Y-128850000D03*
%TO.P,D18,2,A*%
%TO.N,Net-(D18-A)*%
X163500000Y-132150000D03*
%TD*%
D10*
%TO.P,Sw18,1,NE*%
%TO.N,Net-(D18-A)*%
X172000000Y-144900000D03*
D11*
X175274999Y-133049999D03*
%TO.P,Sw18,2,SW*%
%TO.N,col5*%
X163724999Y-135249999D03*
D10*
X167000000Y-142800000D03*
X177000000Y-142800000D03*
%TD*%
D21*
%TO.N,Net-(D1-A)*%
X78500000Y-145000000D03*
%TO.N,Net-(D2-A)*%
X95000000Y-92000000D03*
%TO.N,Net-(D3-A)*%
X113000000Y-86000000D03*
%TO.N,Net-(D4-A)*%
X128000000Y-82000000D03*
%TO.N,Net-(D5-A)*%
X149175479Y-84175479D03*
%TO.N,Net-(D6-A)*%
X167500000Y-97000000D03*
%TO.N,Net-(D10-K)*%
X89000000Y-139350000D03*
X87000000Y-128000000D03*
%TO.N,Net-(D7-A)*%
X95750000Y-143000000D03*
%TO.N,Net-(D8-A)*%
X95500000Y-109000000D03*
%TO.N,Net-(D9-A)*%
X113000000Y-103000000D03*
%TO.N,Net-(D10-A)*%
X131500000Y-97000000D03*
%TO.N,Net-(D11-A)*%
X149500000Y-101000000D03*
%TO.N,Net-(D12-A)*%
X167000000Y-114000000D03*
%TO.N,Net-(D13-K)*%
X85000000Y-129000000D03*
X90500000Y-123000000D03*
%TO.N,Net-(D13-A)*%
X113500000Y-141000000D03*
%TO.N,Net-(D14-A)*%
X96000000Y-126000000D03*
%TO.N,Net-(D15-A)*%
X114000000Y-120000000D03*
%TO.N,Net-(D16-A)*%
X131500000Y-114000000D03*
%TO.N,Net-(D17-A)*%
X149500000Y-118000000D03*
%TO.N,Net-(D18-A)*%
X167500000Y-131000000D03*
%TO.N,Net-(J1-Pin_1)*%
X77250000Y-92750000D03*
%TO.N,Net-(J1-Pin_2)*%
X79500000Y-95000000D03*
%TD*%
D22*
%TO.N,row0*%
X76250000Y-86750000D02*
X70880000Y-81380000D01*
X76250000Y-120575000D02*
X76250000Y-86750000D01*
X81175000Y-125500000D02*
X76250000Y-120575000D01*
X81675000Y-125500000D02*
X81175000Y-125500000D01*
%TO.N,row1*%
X72644448Y-83920000D02*
X75700000Y-86975552D01*
X75700000Y-121700000D02*
X81250000Y-127250000D01*
X70880000Y-83920000D02*
X72644448Y-83920000D01*
X81250000Y-127250000D02*
X81675000Y-127250000D01*
X75700000Y-86975552D02*
X75700000Y-121700000D01*
%TO.N,row2*%
X72750000Y-88330000D02*
X72750000Y-89250000D01*
X75250000Y-100500000D02*
X75250000Y-123250000D01*
X81000000Y-129000000D02*
X81675000Y-129000000D01*
X74000000Y-99250000D02*
X75250000Y-100500000D01*
X72750000Y-89250000D02*
X74000000Y-90500000D01*
X70880000Y-86460000D02*
X72750000Y-88330000D01*
X75250000Y-123250000D02*
X81000000Y-129000000D01*
X74000000Y-90500000D02*
X74000000Y-99250000D01*
%TO.N,col0*%
X74750000Y-101250000D02*
X74750000Y-140250000D01*
X73750000Y-141250000D02*
X73750000Y-149225000D01*
X105000000Y-154800000D02*
X109725000Y-150075000D01*
X73725000Y-153525000D02*
X77000000Y-156800000D01*
X72300000Y-90420000D02*
X72300000Y-98800000D01*
X109725000Y-150075000D02*
X109725000Y-145250000D01*
X74750000Y-140250000D02*
X73750000Y-141250000D01*
X73725000Y-149250000D02*
X73725000Y-153525000D01*
X87000000Y-156800000D02*
X91725000Y-152075000D01*
X70880000Y-89000000D02*
X72300000Y-90420000D01*
X95000000Y-154800000D02*
X105000000Y-154800000D01*
X113000000Y-152800000D02*
X123000000Y-152800000D01*
X72300000Y-98800000D02*
X74750000Y-101250000D01*
X91725000Y-152075000D02*
X91725000Y-147250000D01*
X77000000Y-156800000D02*
X87000000Y-156800000D01*
X73750000Y-149225000D02*
X73725000Y-149250000D01*
%TO.N,col1*%
X95000000Y-137800000D02*
X91725000Y-134525000D01*
X95000000Y-120800000D02*
X93000000Y-118800000D01*
X94550000Y-103800000D02*
X91725000Y-100975000D01*
X95000000Y-137800000D02*
X105000000Y-137800000D01*
X93000000Y-117000000D02*
X91725000Y-115725000D01*
X91725000Y-115725000D02*
X91725000Y-113250000D01*
X91725000Y-134525000D02*
X91725000Y-130250000D01*
X93000000Y-118800000D02*
X93000000Y-117000000D01*
X95000000Y-120800000D02*
X105000000Y-120800000D01*
X95000000Y-103800000D02*
X105000000Y-103800000D01*
X91725000Y-100975000D02*
X91725000Y-96250000D01*
%TO.N,col2*%
X109725000Y-90250000D02*
X109725000Y-94525000D01*
X109725000Y-94525000D02*
X113000000Y-97800000D01*
X113000000Y-114800000D02*
X110000000Y-111800000D01*
X113000000Y-131800000D02*
X123000000Y-131800000D01*
X110000000Y-111800000D02*
X110000000Y-107525000D01*
X109725000Y-128525000D02*
X109725000Y-124250000D01*
X113000000Y-114800000D02*
X123000000Y-114800000D01*
X110000000Y-107525000D02*
X109725000Y-107250000D01*
X113000000Y-131800000D02*
X109725000Y-128525000D01*
X113000000Y-97800000D02*
X123000000Y-97800000D01*
%TO.N,col3*%
X127725000Y-118250000D02*
X127725000Y-122525000D01*
X131000000Y-125800000D02*
X141000000Y-125800000D01*
X127725000Y-88525000D02*
X131000000Y-91800000D01*
X127725000Y-105525000D02*
X131000000Y-108800000D01*
X127725000Y-84250000D02*
X127725000Y-88525000D01*
X131000000Y-108800000D02*
X141000000Y-108800000D01*
X127725000Y-101250000D02*
X127725000Y-105525000D01*
X131000000Y-91800000D02*
X141000000Y-91800000D01*
X127725000Y-122525000D02*
X131000000Y-125800000D01*
%TO.N,col4*%
X145725000Y-122250000D02*
X145725000Y-126525000D01*
X149000000Y-95800000D02*
X145725000Y-92525000D01*
X149000000Y-112800000D02*
X159000000Y-112800000D01*
X149000000Y-112800000D02*
X145725000Y-109525000D01*
X145725000Y-92525000D02*
X145725000Y-88250000D01*
X149000000Y-129800000D02*
X159000000Y-129800000D01*
X145725000Y-126525000D02*
X149000000Y-129800000D01*
X159000000Y-95800000D02*
X149000000Y-95800000D01*
X145725000Y-109525000D02*
X145725000Y-105250000D01*
%TO.N,col5*%
X167000000Y-125800000D02*
X177000000Y-125800000D01*
X167000000Y-142800000D02*
X177000000Y-142800000D01*
X163725000Y-101250000D02*
X163725000Y-105525000D01*
X163725000Y-139525000D02*
X163725000Y-135250000D01*
X163725000Y-122525000D02*
X167000000Y-125800000D01*
X167000000Y-142800000D02*
X163725000Y-139525000D01*
X177000000Y-108800000D02*
X167000000Y-108800000D01*
X163725000Y-118250000D02*
X163725000Y-122525000D01*
X163725000Y-105525000D02*
X167000000Y-108800000D01*
%TO.N,Net-(D1-K)*%
X137411198Y-79550480D02*
X138110718Y-80250000D01*
X88000000Y-139324695D02*
X88000000Y-127974695D01*
X75500000Y-141600000D02*
X85724695Y-141600000D01*
X91000000Y-90600000D02*
X89500000Y-92100000D01*
X102750000Y-90600000D02*
X91000000Y-90600000D01*
X120650000Y-84350000D02*
X109000000Y-84350000D01*
X88000000Y-127974695D02*
X86025305Y-126000000D01*
X145500000Y-82350000D02*
X157100000Y-82350000D01*
X157100000Y-82350000D02*
X163500000Y-88750000D01*
X138110718Y-80250000D02*
X142250000Y-80250000D01*
X87500000Y-108250000D02*
X87500000Y-123525305D01*
X85724695Y-141600000D02*
X88000000Y-139324695D01*
X129813803Y-79550480D02*
X137411198Y-79550480D01*
X124500000Y-80850000D02*
X124150000Y-80850000D01*
X142250000Y-80250000D02*
X144350000Y-82350000D01*
X109000000Y-84350000D02*
X102750000Y-90600000D01*
X124500000Y-80850000D02*
X128514282Y-80850000D01*
X85525305Y-125500000D02*
X86025305Y-126000000D01*
X89500000Y-92100000D02*
X89500000Y-106250000D01*
X124150000Y-80850000D02*
X120650000Y-84350000D01*
X83325000Y-125500000D02*
X85525305Y-125500000D01*
X128514282Y-80850000D02*
X129813803Y-79550480D01*
X87500000Y-123525305D02*
X85525305Y-125500000D01*
X89500000Y-106250000D02*
X87500000Y-108250000D01*
X163500000Y-88750000D02*
X163500000Y-95350000D01*
X144350000Y-82350000D02*
X145500000Y-82350000D01*
%TO.N,Net-(D1-A)*%
X75500000Y-144900000D02*
X78400000Y-144900000D01*
X78400000Y-144900000D02*
X78500000Y-145000000D01*
X83225000Y-145000000D02*
X85275000Y-147050000D01*
X78500000Y-145000000D02*
X83225000Y-145000000D01*
%TO.N,Net-(D2-A)*%
X93500000Y-92000000D02*
X95000000Y-92000000D01*
X101225000Y-92000000D02*
X103275000Y-94050000D01*
X91850000Y-93650000D02*
X93500000Y-92000000D01*
X95000000Y-92000000D02*
X101225000Y-92000000D01*
X91000000Y-93650000D02*
X91850000Y-93650000D01*
%TO.N,/Bat_Gnd*%
X90500000Y-84500000D02*
X92300000Y-82700000D01*
X92300000Y-82700000D02*
X92300000Y-81700000D01*
%TO.N,Net-(D3-A)*%
X119225000Y-86000000D02*
X121275000Y-88050000D01*
X111500000Y-86000000D02*
X119225000Y-86000000D01*
X109000000Y-87650000D02*
X109850000Y-87650000D01*
X109850000Y-87650000D02*
X111500000Y-86000000D01*
%TO.N,Net-(D4-A)*%
X124500000Y-84150000D02*
X126650000Y-82000000D01*
X130000000Y-80000000D02*
X137225000Y-80000000D01*
X126650000Y-82000000D02*
X128000000Y-82000000D01*
X128000000Y-82000000D02*
X130000000Y-80000000D01*
X137225000Y-80000000D02*
X139275000Y-82050000D01*
%TO.N,Net-(D5-A)*%
X149175479Y-84175479D02*
X155400479Y-84175479D01*
X155400479Y-84175479D02*
X157275000Y-86050000D01*
X146350000Y-85650000D02*
X147824521Y-84175479D01*
X147824521Y-84175479D02*
X149175479Y-84175479D01*
X145500000Y-85650000D02*
X146350000Y-85650000D01*
%TO.N,Net-(D6-A)*%
X173225000Y-97000000D02*
X175275000Y-99050000D01*
X164850000Y-98650000D02*
X166500000Y-97000000D01*
X166500000Y-97000000D02*
X173225000Y-97000000D01*
X163500000Y-98650000D02*
X164850000Y-98650000D01*
%TO.N,Net-(D10-K)*%
X89000000Y-139350000D02*
X89250000Y-139350000D01*
X142850000Y-95350000D02*
X126150000Y-95350000D01*
X107500000Y-102500000D02*
X107500000Y-106500000D01*
X126150000Y-95350000D02*
X125500000Y-96000000D01*
X93000000Y-107500000D02*
X92350000Y-106850000D01*
X91000000Y-106850000D02*
X89000000Y-108850000D01*
X145000000Y-99350000D02*
X145000000Y-97500000D01*
X106500000Y-107500000D02*
X93000000Y-107500000D01*
X86250000Y-127250000D02*
X83325000Y-127250000D01*
X92350000Y-106850000D02*
X91000000Y-106850000D01*
X158350000Y-99350000D02*
X145000000Y-99350000D01*
X163000000Y-112350000D02*
X163000000Y-104000000D01*
X145000000Y-97500000D02*
X142850000Y-95350000D01*
X124650000Y-101350000D02*
X108650000Y-101350000D01*
X89000000Y-108850000D02*
X89000000Y-139350000D01*
X87000000Y-128000000D02*
X86250000Y-127250000D01*
X125500000Y-96000000D02*
X125500000Y-100500000D01*
X89250000Y-139350000D02*
X91250000Y-141350000D01*
X107500000Y-106500000D02*
X106500000Y-107500000D01*
X125500000Y-100500000D02*
X124650000Y-101350000D01*
X163000000Y-104000000D02*
X158350000Y-99350000D01*
X108650000Y-101350000D02*
X107500000Y-102500000D01*
%TO.N,Net-(D7-A)*%
X91000000Y-144650000D02*
X91850000Y-144650000D01*
X93500000Y-143000000D02*
X95750000Y-143000000D01*
X91850000Y-144650000D02*
X93500000Y-143000000D01*
X101225000Y-143000000D02*
X103275000Y-145050000D01*
X96750000Y-143000000D02*
X95750000Y-143000000D01*
X101225000Y-143000000D02*
X96750000Y-143000000D01*
%TO.N,Net-(D8-A)*%
X93000000Y-109000000D02*
X95500000Y-109000000D01*
X91000000Y-110150000D02*
X91850000Y-110150000D01*
X101225000Y-109000000D02*
X103275000Y-111050000D01*
X95500000Y-109000000D02*
X101225000Y-109000000D01*
X91850000Y-110150000D02*
X93000000Y-109000000D01*
%TO.N,Net-(D9-A)*%
X113000000Y-103000000D02*
X119225000Y-103000000D01*
X119225000Y-103000000D02*
X121275000Y-105050000D01*
X109850000Y-104650000D02*
X111500000Y-103000000D01*
X109000000Y-104650000D02*
X109850000Y-104650000D01*
X111500000Y-103000000D02*
X113000000Y-103000000D01*
%TO.N,Net-(D10-A)*%
X137225000Y-97000000D02*
X139275000Y-99050000D01*
X127850000Y-98650000D02*
X129500000Y-97000000D01*
X129500000Y-97000000D02*
X137225000Y-97000000D01*
X127000000Y-98650000D02*
X127850000Y-98650000D01*
%TO.N,Net-(D11-A)*%
X145350000Y-102650000D02*
X147000000Y-101000000D01*
X149500000Y-101000000D02*
X155225000Y-101000000D01*
X145000000Y-102650000D02*
X145350000Y-102650000D01*
X147000000Y-101000000D02*
X149500000Y-101000000D01*
X155225000Y-101000000D02*
X157275000Y-103050000D01*
%TO.N,Net-(D12-A)*%
X174000000Y-114000000D02*
X175275000Y-115275000D01*
X175275000Y-115275000D02*
X175275000Y-116050000D01*
X165500000Y-114000000D02*
X167000000Y-114000000D01*
X163850000Y-115650000D02*
X165500000Y-114000000D01*
X163000000Y-115650000D02*
X163850000Y-115650000D01*
X167000000Y-114000000D02*
X174000000Y-114000000D01*
%TO.N,Net-(D13-K)*%
X143500000Y-113500000D02*
X143500000Y-115500000D01*
X109000000Y-126700000D02*
X106650000Y-124350000D01*
X142350000Y-112350000D02*
X143500000Y-113500000D01*
X146850000Y-116350000D02*
X147500000Y-117000000D01*
X126150000Y-112350000D02*
X127000000Y-112350000D01*
X143500000Y-115500000D02*
X144350000Y-116350000D01*
X127000000Y-112350000D02*
X142350000Y-112350000D01*
X159500000Y-117000000D02*
X161500000Y-119000000D01*
X145000000Y-116350000D02*
X146850000Y-116350000D01*
X147500000Y-117000000D02*
X159500000Y-117000000D01*
X107500000Y-123500000D02*
X107500000Y-119000000D01*
X125500000Y-117500000D02*
X125500000Y-113000000D01*
X111350000Y-118350000D02*
X112000000Y-119000000D01*
X161500000Y-119000000D02*
X161500000Y-126850000D01*
X90500000Y-123000000D02*
X91000000Y-123500000D01*
X161500000Y-126850000D02*
X163500000Y-128850000D01*
X106650000Y-124350000D02*
X107500000Y-123500000D01*
X91000000Y-123500000D02*
X91000000Y-124350000D01*
X107500000Y-119000000D02*
X108150000Y-118350000D01*
X144350000Y-116350000D02*
X145000000Y-116350000D01*
X109000000Y-138850000D02*
X109000000Y-126700000D01*
X124000000Y-119000000D02*
X125500000Y-117500000D01*
X109000000Y-118350000D02*
X111350000Y-118350000D01*
X108150000Y-118350000D02*
X109000000Y-118350000D01*
X85000000Y-129000000D02*
X83325000Y-129000000D01*
X91000000Y-124350000D02*
X106650000Y-124350000D01*
X112000000Y-119000000D02*
X124000000Y-119000000D01*
X125500000Y-113000000D02*
X126150000Y-112350000D01*
%TO.N,Net-(D13-A)*%
X110350000Y-142150000D02*
X111500000Y-141000000D01*
X111500000Y-141000000D02*
X119225000Y-141000000D01*
X119225000Y-141000000D02*
X121275000Y-143050000D01*
X109000000Y-142150000D02*
X110350000Y-142150000D01*
%TO.N,Net-(D14-A)*%
X91850000Y-127650000D02*
X93500000Y-126000000D01*
X101225000Y-126000000D02*
X103275000Y-128050000D01*
X93500000Y-126000000D02*
X101225000Y-126000000D01*
X91000000Y-127650000D02*
X91850000Y-127650000D01*
%TO.N,Net-(D15-A)*%
X110350000Y-121650000D02*
X112000000Y-120000000D01*
X109000000Y-121650000D02*
X110350000Y-121650000D01*
X112000000Y-120000000D02*
X119500000Y-120000000D01*
X121275000Y-121775000D02*
X121275000Y-122050000D01*
X119500000Y-120000000D02*
X121275000Y-121775000D01*
%TO.N,Net-(D16-A)*%
X131500000Y-114000000D02*
X129500000Y-114000000D01*
X137225000Y-114000000D02*
X139275000Y-116050000D01*
X129500000Y-114000000D02*
X127850000Y-115650000D01*
X127850000Y-115650000D02*
X127000000Y-115650000D01*
X131500000Y-114000000D02*
X137225000Y-114000000D01*
%TO.N,Net-(D17-A)*%
X149500000Y-118000000D02*
X155225000Y-118000000D01*
X145000000Y-119650000D02*
X145850000Y-119650000D01*
X155225000Y-118000000D02*
X157275000Y-120050000D01*
X145850000Y-119650000D02*
X147500000Y-118000000D01*
X147500000Y-118000000D02*
X149500000Y-118000000D01*
%TO.N,Net-(D18-A)*%
X165500000Y-131000000D02*
X173225000Y-131000000D01*
X173225000Y-131000000D02*
X175275000Y-133050000D01*
X163500000Y-132150000D02*
X164350000Y-132150000D01*
X164350000Y-132150000D02*
X165500000Y-131000000D01*
%TO.N,Net-(J1-Pin_1)*%
X78000000Y-102000000D02*
X77750000Y-101750000D01*
X77750000Y-101750000D02*
X77750000Y-93250000D01*
X77750000Y-93250000D02*
X77250000Y-92750000D01*
%TO.N,Net-(J1-Pin_2)*%
X80290000Y-101750000D02*
X80290000Y-95790000D01*
X80540000Y-102000000D02*
X80290000Y-101750000D01*
X80290000Y-95790000D02*
X79500000Y-95000000D01*
%TO.N,Net-(J1-Pin_3)*%
X88920866Y-86579134D02*
X89000000Y-86658268D01*
X86120000Y-83920000D02*
X86261732Y-83920000D01*
X95200000Y-82800000D02*
X95200000Y-81700000D01*
X86120000Y-83920000D02*
X80750000Y-89290000D01*
X91341732Y-86658268D02*
X95200000Y-82800000D01*
X80750000Y-98790000D02*
X83080000Y-101120000D01*
X89000000Y-86658268D02*
X91341732Y-86658268D01*
X86261732Y-83920000D02*
X88920866Y-86579134D01*
X80750000Y-89290000D02*
X80750000Y-98790000D01*
X83080000Y-101120000D02*
X83080000Y-102000000D01*
%TO.N,Net-(J1-Pin_4)*%
X86120000Y-86460000D02*
X81286500Y-91293500D01*
X85620000Y-101870000D02*
X85620000Y-102000000D01*
X81286500Y-91293500D02*
X81286500Y-98631948D01*
X81286500Y-98631948D02*
X82154552Y-99500000D01*
X82154552Y-99500000D02*
X83250000Y-99500000D01*
X83250000Y-99500000D02*
X85620000Y-101870000D01*
%TD*%
M02*
