M48
; DRILL file {KiCad (7.0.0)} date Mon Sep  4 00:10:09 2023
; FORMAT={-:-/ absolute / inch / decimal}
; #@! TF.CreationDate,2023-09-04T00:10:09+01:00
; #@! TF.GenerationSoftware,Kicad,Pcbnew,(7.0.0)
; #@! TF.FileFunction,Plated,1,2,PTH
FMAT,2
INCH
; #@! TA.AperFunction,Plated,PTH,ViaDrill
T1C0.0157
; #@! TA.AperFunction,Plated,PTH,ComponentDrill
T2C0.0394
; #@! TA.AperFunction,Plated,PTH,ComponentDrill
T3C0.0400
; #@! TA.AperFunction,Plated,PTH,ComponentDrill
T4C0.0500
%
G90
G05
T1
X3.0413Y-3.6516
X3.0906Y-5.7087
X3.1299Y-3.7402
X3.3465Y-5.0787
X3.4252Y-5.0394
X3.5039Y-5.4862
X3.563Y-4.8425
X3.7402Y-3.622
X3.7598Y-4.2913
X3.7697Y-5.6299
X3.7795Y-4.9606
X4.4488Y-3.3858
X4.4488Y-4.0551
X4.4685Y-5.5512
X4.4882Y-4.7244
X5.0394Y-3.2283
X5.1772Y-3.8189
X5.1772Y-4.4882
X5.8731Y-3.314
X5.8858Y-3.9764
X5.8858Y-4.6457
X6.5748Y-4.4882
X6.5945Y-3.8189
X6.5945Y-5.1575
T2
X2.7906Y-3.2039
X2.7906Y-3.3039
X2.7906Y-3.4039
X2.7906Y-3.5039
X2.7906Y-3.6039
X2.7906Y-3.7039
X2.7906Y-3.8039
X3.0709Y-4.0157
X3.1709Y-4.0157
X3.2709Y-4.0157
X3.3709Y-4.0157
X3.3906Y-3.2039
X3.3906Y-3.3039
X3.3906Y-3.4039
X3.3906Y-3.5039
X3.3906Y-3.6039
X3.3906Y-3.7039
X3.3906Y-3.8039
X3.563Y-3.3268
T3
X2.9156Y-3.4165
X2.9156Y-3.4915
X3.0406Y-3.1665
X3.0406Y-3.2665
X3.1406Y-3.1665
X3.1406Y-3.2665
X3.2406Y-3.8665
X3.3156Y-3.8665
T4
X3.0315Y-6.1732
X3.2283Y-6.2559
X3.4252Y-6.1732
X3.7402Y-4.0866
X3.7402Y-4.7559
X3.7402Y-5.4252
X3.7402Y-6.0945
X3.937Y-4.1693
X3.937Y-4.8386
X3.937Y-5.5079
X3.937Y-6.1772
X4.1339Y-4.0866
X4.1339Y-4.7559
X4.1339Y-5.4252
X4.1339Y-6.0945
X4.4488Y-3.8504
X4.4488Y-4.5197
X4.4488Y-5.189
X4.4488Y-6.0157
X4.6457Y-3.9331
X4.6457Y-4.6024
X4.6457Y-5.2717
X4.6457Y-6.0984
X4.8425Y-3.8504
X4.8425Y-4.5197
X4.8425Y-5.189
X4.8425Y-6.0157
X5.1575Y-3.6142
X5.1575Y-4.2835
X5.1575Y-4.9528
X5.3543Y-3.6969
X5.3543Y-4.3661
X5.3543Y-5.0354
X5.5512Y-3.6142
X5.5512Y-4.2835
X5.5512Y-4.9528
X5.8661Y-3.7717
X5.8661Y-4.4409
X5.8661Y-5.1102
X6.063Y-3.8543
X6.063Y-4.5236
X6.063Y-5.1929
X6.2598Y-3.7717
X6.2598Y-4.4409
X6.2598Y-5.1102
X6.5748Y-4.2835
X6.5748Y-4.9528
X6.5748Y-5.622
X6.7717Y-4.3661
X6.7717Y-5.0354
X6.7717Y-5.7047
X6.9685Y-4.2835
X6.9685Y-4.9528
X6.9685Y-5.622
T0
M30
