%TF.GenerationSoftware,KiCad,Pcbnew,(7.0.0)*%
%TF.CreationDate,2023-09-04T00:10:10+01:00*%
%TF.ProjectId,Razer36_V2,52617a65-7233-4365-9f56-322e6b696361,rev?*%
%TF.SameCoordinates,Original*%
%TF.FileFunction,Paste,Top*%
%TF.FilePolarity,Positive*%
%FSLAX46Y46*%
G04 Gerber Fmt 4.6, Leading zero omitted, Abs format (unit mm)*
G04 Created by KiCad (PCBNEW (7.0.0)) date 2023-09-04 00:10:10*
%MOMM*%
%LPD*%
G01*
G04 APERTURE LIST*
G04 Aperture macros list*
%AMRoundRect*
0 Rectangle with rounded corners*
0 $1 Rounding radius*
0 $2 $3 $4 $5 $6 $7 $8 $9 X,Y pos of 4 corners*
0 Add a 4 corners polygon primitive as box body*
4,1,4,$2,$3,$4,$5,$6,$7,$8,$9,$2,$3,0*
0 Add four circle primitives for the rounded corners*
1,1,$1+$1,$2,$3*
1,1,$1+$1,$4,$5*
1,1,$1+$1,$6,$7*
1,1,$1+$1,$8,$9*
0 Add four rect primitives between the rounded corners*
20,1,$1+$1,$2,$3,$4,$5,0*
20,1,$1+$1,$4,$5,$6,$7,0*
20,1,$1+$1,$6,$7,$8,$9,0*
20,1,$1+$1,$8,$9,$2,$3,0*%
G04 Aperture macros list end*
%ADD10R,2.600000X2.600000*%
%ADD11RoundRect,0.225000X-0.375000X0.225000X-0.375000X-0.225000X0.375000X-0.225000X0.375000X0.225000X0*%
%ADD12R,1.000000X0.600000*%
%ADD13R,1.100000X0.600000*%
%ADD14R,0.600000X1.000000*%
%ADD15RoundRect,0.200000X-0.200000X-0.275000X0.200000X-0.275000X0.200000X0.275000X-0.200000X0.275000X0*%
G04 APERTURE END LIST*
D10*
%TO.C,Sw4*%
X139274999Y-82049999D03*
X127724999Y-84249999D03*
%TD*%
%TO.C,Sw17*%
X157274999Y-120049999D03*
X145724999Y-122249999D03*
%TD*%
D11*
%TO.C,D4*%
X124500000Y-80850000D03*
X124500000Y-84150000D03*
%TD*%
%TO.C,D6*%
X163500000Y-95350000D03*
X163500000Y-98650000D03*
%TD*%
%TO.C,D8*%
X91250000Y-106850000D03*
X91250000Y-110150000D03*
%TD*%
%TO.C,D9*%
X109250000Y-101250000D03*
X109250000Y-104550000D03*
%TD*%
D10*
%TO.C,Sw15*%
X121274999Y-122049999D03*
X109724999Y-124249999D03*
%TD*%
D11*
%TO.C,D14*%
X91000000Y-124350000D03*
X91000000Y-127650000D03*
%TD*%
%TO.C,D3*%
X109000000Y-84350000D03*
X109000000Y-87650000D03*
%TD*%
%TO.C,D7*%
X91250000Y-141350000D03*
X91250000Y-144650000D03*
%TD*%
%TO.C,D10*%
X127250000Y-95350000D03*
X127250000Y-98650000D03*
%TD*%
D12*
%TO.C,PWR1*%
X96599999Y-78706999D03*
D13*
X89399999Y-78706999D03*
X96599999Y-80992999D03*
D12*
X89399999Y-80992999D03*
D14*
X95199999Y-81699999D03*
X92299999Y-81699999D03*
X90799999Y-81699999D03*
%TD*%
D11*
%TO.C,D17*%
X145250000Y-116350000D03*
X145250000Y-119650000D03*
%TD*%
%TO.C,D5*%
X145500000Y-82350000D03*
X145500000Y-85650000D03*
%TD*%
D10*
%TO.C,Sw16*%
X139274999Y-116049999D03*
X127724999Y-118249999D03*
%TD*%
D11*
%TO.C,D11*%
X145000000Y-99350000D03*
X145000000Y-102650000D03*
%TD*%
D10*
%TO.C,Sw9*%
X121274999Y-105049999D03*
X109724999Y-107249999D03*
%TD*%
%TO.C,Sw1*%
X85274999Y-147049999D03*
X73724999Y-149249999D03*
%TD*%
%TO.C,Sw10*%
X139274999Y-99049999D03*
X127724999Y-101249999D03*
%TD*%
D15*
%TO.C,R1*%
X81675000Y-125500000D03*
X83325000Y-125500000D03*
%TD*%
D11*
%TO.C,D13*%
X109000000Y-139100000D03*
X109000000Y-142400000D03*
%TD*%
%TO.C,D1*%
X75500000Y-141600000D03*
X75500000Y-144900000D03*
%TD*%
D10*
%TO.C,Sw5*%
X157274999Y-86049999D03*
X145724999Y-88249999D03*
%TD*%
D11*
%TO.C,D15*%
X109500000Y-118350000D03*
X109500000Y-121650000D03*
%TD*%
%TO.C,D16*%
X127250000Y-112350000D03*
X127250000Y-115650000D03*
%TD*%
D10*
%TO.C,Sw6*%
X175274999Y-99049999D03*
X163724999Y-101249999D03*
%TD*%
%TO.C,Sw3*%
X121274999Y-88049999D03*
X109724999Y-90249999D03*
%TD*%
%TO.C,Sw11*%
X157274999Y-103049999D03*
X145724999Y-105249999D03*
%TD*%
%TO.C,Sw2*%
X103274999Y-94049999D03*
X91724999Y-96249999D03*
%TD*%
%TO.C,Sw13*%
X121274999Y-143049999D03*
X109724999Y-145249999D03*
%TD*%
%TO.C,Sw7*%
X103274999Y-145049999D03*
X91724999Y-147249999D03*
%TD*%
%TO.C,Sw14*%
X103274999Y-128049999D03*
X91724999Y-130249999D03*
%TD*%
D15*
%TO.C,R3*%
X81675000Y-129000000D03*
X83325000Y-129000000D03*
%TD*%
D11*
%TO.C,D12*%
X163000000Y-112350000D03*
X163000000Y-115650000D03*
%TD*%
D10*
%TO.C,Sw12*%
X175274999Y-116049999D03*
X163724999Y-118249999D03*
%TD*%
D15*
%TO.C,R2*%
X81675000Y-127250000D03*
X83325000Y-127250000D03*
%TD*%
D10*
%TO.C,Sw8*%
X103274999Y-111049999D03*
X91724999Y-113249999D03*
%TD*%
D11*
%TO.C,D2*%
X91000000Y-90600000D03*
X91000000Y-93900000D03*
%TD*%
%TO.C,D18*%
X163500000Y-128850000D03*
X163500000Y-132150000D03*
%TD*%
D10*
%TO.C,Sw18*%
X175274999Y-133049999D03*
X163724999Y-135249999D03*
%TD*%
M02*
